<svg width="158" height="132" viewBox="0 0 158 132" fill="none" xmlns="http://www.w3.org/2000/svg">
<path fill-rule="evenodd" clip-rule="evenodd" d="M41.5898 12.3511C41.5927 12.1257 41.7585 11.935 41.9826 11.8993C43.1236 11.5575 44.1973 11.039 45.3261 10.6608C45.9342 10.4614 46.525 10.2131 47.0925 9.91841C47.5042 9.70085 47.9735 9.6368 48.4035 9.45078L48.5197 9.39681C49.0156 9.15042 49.5727 9.04664 50.0896 8.83311C50.5258 8.65296 51.0168 8.63349 51.4699 8.46291C52.132 8.22264 52.8058 8.01566 53.4888 7.84275C53.913 7.67918 54.3637 7.59398 54.8187 7.59133C54.9408 7.60313 55.0139 7.53092 55.1098 7.50552C55.5188 7.38329 55.935 7.28597 56.3559 7.2141C57.251 7.08683 58.1333 6.87423 59.0289 6.7607C59.6791 6.67875 60.3208 6.55847 60.9669 6.45727C61.5886 6.36033 62.2123 6.27558 62.8378 6.20304C64.3015 6.02777 65.7743 5.93781 67.2486 5.93359C68.4027 5.94447 69.5552 6.02013 70.7008 6.16021C71.6337 6.23622 72.5606 6.37392 73.4751 6.57238C74.1998 6.75449 74.9556 6.83315 75.6505 7.07653C76.3063 7.30623 76.9789 7.50179 77.6355 7.71352C79.1565 8.20378 80.6531 8.75277 82.1254 9.36049C82.9926 9.71735 83.8577 10.0949 84.7276 10.4369C85.7483 10.8381 86.7152 11.3514 87.7338 11.7554C88.3304 11.9926 88.916 12.3164 89.5058 12.5952C90.0768 12.8651 90.6063 13.2126 91.1941 13.4468C91.7721 13.7007 92.3367 13.9836 92.8858 14.2943C93.4057 14.5663 94.025 14.737 94.4322 15.2163C94.9499 15.1823 95.2529 15.6143 95.6615 15.8105C96.0701 16.0067 96.4696 16.2324 96.8815 16.4002C97.306 16.573 97.7339 16.7609 98.1487 16.9437C98.9913 17.3148 99.8646 17.6037 100.703 17.9708C101.215 18.1945 101.757 18.2492 102.274 18.4232C103.266 18.7512 104.288 18.9803 105.326 19.1071C105.744 19.15 106.153 19.2556 106.538 19.4204C106.828 19.5527 107.098 19.3753 107.388 19.4538C107.858 19.581 108.349 19.6295 108.828 19.7203C108.976 19.7754 109.142 19.7471 109.263 19.6464L109.538 19.9583C109.71 19.99 109.581 19.8327 109.671 19.7857C109.872 19.8046 110.093 19.7739 110.288 19.9247C110.47 20.0669 110.667 19.8823 110.879 19.9483C111.34 20.0903 111.883 19.8233 112.304 20.2117C112.764 20.0821 113.222 20.2256 113.681 20.228C113.903 20.2171 114.122 20.2848 114.298 20.418L114.338 20.4499C114.499 20.5973 114.745 20.2525 114.892 20.5355C115.687 20.3811 116.39 20.7856 117.109 20.971C118.261 21.269 119.443 21.4813 120.552 21.9758C121.107 22.223 121.756 22.3201 122.327 22.5614C123.609 23.1037 124.93 23.5599 126.147 24.2551C126.649 24.5426 127.216 24.7188 127.716 25.0111L128.294 25.3492C129.16 25.8575 130.021 26.3752 130.848 26.9469C131.058 27.0492 131.236 27.2081 131.36 27.4055C131.479 27.6557 131.793 27.5532 131.999 27.7073C132.246 27.8889 132.379 28.1711 132.678 28.3218C132.843 28.4048 133.024 28.6311 133.216 28.7278C133.837 29.0427 134.201 29.673 134.829 29.9731C135.042 30.1222 135.219 30.3165 135.347 30.5421C135.845 31.1616 136.591 31.5325 137.033 32.1915L137.091 32.2831C137.309 32.6324 137.604 32.9264 137.955 33.1424L138.092 33.2239C138.193 33.2848 138.286 33.3492 138.306 33.443C138.389 33.8356 138.73 34.0358 138.952 34.3154C139.189 34.6149 139.529 34.8291 139.739 35.1695C139.915 35.5352 140.156 35.867 140.449 36.1493C141.001 36.5665 141.307 37.1508 141.689 37.6829C141.88 37.9486 142.203 38.1588 142.145 38.5776C142.115 38.7907 142.573 38.635 142.533 38.9425L142.527 38.9773C142.48 39.1871 142.614 39.2952 142.802 39.3927C142.974 39.4819 142.851 39.8105 143.057 39.8691C143.263 39.9278 143.5 40.0827 143.452 40.1872C143.336 40.4494 143.744 40.4421 143.633 40.6496C143.627 40.6745 143.633 40.7007 143.649 40.7206C144.133 41.2589 144.263 41.9959 144.723 42.5607C144.985 42.9115 145.179 43.3084 145.292 43.7305C145.424 44.1137 145.588 44.4854 145.782 44.8417C146.089 45.4611 146.195 46.145 146.507 46.7555C146.591 46.9209 146.246 47.2143 146.665 47.2827C146.558 47.538 146.814 47.6601 146.87 47.851C146.887 48.0222 146.878 48.1952 146.843 48.3637C147.062 48.6894 147.201 49.062 147.249 49.4511C147.439 50.227 147.58 51.014 147.67 51.8075L147.742 52.4611C147.838 53.3338 147.91 54.2108 147.729 55.0855C147.682 55.3104 147.907 55.3906 147.886 55.5915C147.773 56.7614 147.78 57.9388 147.451 59.0922C147.314 59.5751 147.349 60.1254 147.212 60.6217C146.953 61.5628 146.816 62.5294 146.443 63.4507L146.375 63.6128C146.123 64.1866 145.954 64.8217 145.71 65.4154C145.557 65.8241 135.458 113.912 101.16 101.649C84.8954 95.8335 70.1653 126.709 47.792 120.146C-15.5478 101.569 14.5738 24.3666 40.0878 12.8389C40.2834 12.7887 40.4717 12.7137 40.6479 12.6157C40.9101 12.3992 41.2523 12.3031 41.5898 12.3511Z" fill="url(#paint0_linear_1_1556)"/>
<path fill-rule="evenodd" clip-rule="evenodd" d="M63.5165 100.723C62.6294 92.5698 63.2619 82.3119 66.4376 74.7422C65.8556 75.8256 74.2265 77.5976 74.1378 78.0619C73.5558 81.1074 73.183 84.54 72.682 88.3264C72.113 92.6277 72.5006 97.2333 72.9807 100.663C74.1167 108.778 64.4028 108.869 63.5165 100.723Z" fill="white"/>
<path fill-rule="evenodd" clip-rule="evenodd" d="M64.4849 75.0913C66.4665 69.1264 71.1812 64.1178 77.0386 61.7552C80.016 60.5542 83.4764 60.0045 81.722 60.3968C81.3726 62.5369 83.5789 64.4266 85.7584 64.5287C87.9379 64.6307 89.9643 63.47 91.7399 62.21C90.5742 60.1425 91.7486 61.1605 93.4433 63.5004C93.5015 63.6295 85.1169 65.5202 79.8794 69.3098C75.3013 72.6223 73.6453 77.8912 75.3337 78.0621C74.5209 78.4286 73.5814 78.5101 72.717 78.2892C72.717 78.2892 66.812 76.6091 64.4849 75.0913Z" fill="white"/>
<path fill-rule="evenodd" clip-rule="evenodd" d="M64.4849 75.0906C66.4665 69.1256 71.1812 64.1171 77.0386 61.7544C78.1191 61.3186 80.9 60.3431 82.4262 59.5274C85.1092 58.0936 84.4772 56.8436 84.4772 55.9366C84.4772 54.9252 89.019 53.6845 89.9637 54.3897C90.6244 54.883 90.279 56.7169 90.6625 58.2496C91.2642 60.6541 92.4571 62.9307 92.9357 62.5911C94.3708 64.5995 100.564 66.1577 105.706 71.7363C107.918 74.1367 108.522 76.9106 109.312 79.028C110.002 80.8781 111.321 82.1459 111.674 82.6329C111.7 82.6917 103.358 86.6216 103.358 86.6216C103.358 86.6216 105.487 98.5987 102.635 100.663C98.0564 103.975 72.8975 113.299 74.586 113.47C74.1128 113.684 72.0798 96.8443 72.4238 88.861C72.6706 83.1315 74.4986 78.1537 74.1375 78.0614C74.1375 78.0614 66.812 76.6084 64.4849 75.0906Z" fill="white"/>
<path fill-rule="evenodd" clip-rule="evenodd" d="M105.482 96.7988C109.648 95.3085 110.063 84.3818 110.165 84.2879C110.799 87.1443 111.259 90.0389 111.542 92.9505C111.667 94.2309 111.757 95.5282 111.555 96.7988C111.343 98.1336 110.814 99.4023 110.158 100.585C108.702 103.208 106.589 105.469 104.065 107.106C103.656 107.371 103.224 107.624 102.744 107.709C101.682 107.896 100.667 107.228 99.859 106.517C95.778 102.925 93.7316 97.6201 92.0332 92.4726C91.4676 90.7586 87.992 81.4433 88.5989 81.1603C87.6014 80.8287 86.4792 80.8841 85.5196 81.3122C84.9395 81.5709 84.4729 80.6033 84.8382 80.0862C85.2035 79.5691 85.8986 79.4364 86.5026 79.2391C87.1066 79.0417 87.7646 78.5973 87.7205 77.9671C86.6646 78.1274 85.6231 78.381 84.6123 78.7239C84.1329 78.8866 83.6415 78.4243 83.5203 77.9355C83.1953 76.625 84.5259 75.5044 85.7792 74.9838C87.0831 74.4421 88.4878 74.1412 89.9005 74.101C90.1877 74.0928 94.6639 74.7094 93.7578 78.2525C93.7469 78.2949 93.6243 78.679 93.6147 78.7239C92.6665 83.1475 100.58 98.5529 105.482 96.7988Z" fill="white"/>
<path fill-rule="evenodd" clip-rule="evenodd" d="M86.6407 74.3471C86.185 74.1106 86.4176 73.4284 86.6788 72.9884C87.5232 71.566 88.0611 69.965 88.246 68.3239C89.5089 68.157 90.8332 68.5092 91.8433 69.2806C92.0076 69.406 92.1707 69.5518 92.2359 69.7473C92.32 69.9994 92.2234 70.2721 92.1279 70.5201C91.6567 71.7434 91.1854 72.9667 90.7142 74.19C91.5205 74.1906 87.5961 74.8902 86.6407 74.3471Z" fill="white"/>
<path fill-rule="evenodd" clip-rule="evenodd" d="M73.6586 44.0872C72.1277 30.4133 70.4912 31.1768 68.6851 28.3235C66.0156 24.106 66.7143 18.5673 68.5248 13.9211C69.6589 11.0105 71.2059 8.22847 73.3349 5.93359C73.7199 6.05271 73.8519 6.55798 73.7309 6.94024C73.6098 7.32251 73.3183 7.62254 73.0838 7.94857C72.385 8.92002 72.1815 10.2253 72.5516 11.3613C73.0799 12.9826 74.6608 14.0889 76.3189 14.5243C77.9769 14.9597 79.7249 14.8356 81.4351 14.7083C83.1152 14.5833 84.7953 14.4582 86.4754 14.3332C88.1545 14.2082 89.9154 14.0966 91.4509 14.7832C92.9864 15.4699 94.1721 17.24 93.6027 18.8145C93.4272 19.2997 93.7067 19.8473 94.1056 20.1768C94.5046 20.5064 95.0062 20.6809 95.4683 20.9151C97.4158 21.9022 98.6277 23.9655 99.1038 26.0857C99.58 28.2059 99.4216 30.4095 99.2608 32.576C99.1487 34.0868 99.0365 35.5977 98.9244 37.1085C98.8468 38.153 98.7937 39.2916 99.3987 40.1493C100.127 41.1822 99.3275 42.6066 98.3833 43.4498C97.4392 44.2931 96.2483 45.0799 96.0323 46.323C95.7486 47.9555 90.6625 55.3448 85.7499 55.9372C80.9932 56.5107 74.3456 50.2226 73.6586 44.0872Z" fill="white"/>
<path fill-rule="evenodd" clip-rule="evenodd" d="M75.6662 45.9346C77.0477 46.0266 78.4356 46.0231 79.8166 45.9241C80.3353 45.887 80.9482 45.7715 81.1552 45.2975C81.4043 44.7272 82.0052 44.3264 82.6307 44.3134C83.2563 44.3003 83.8735 44.6757 84.1465 45.2351C84.4397 45.8361 85.3015 45.8048 85.9584 45.6635C87.7031 45.2882 89.4197 44.7844 91.0896 44.1578C91.846 43.874 92.2859 43.0499 92.351 42.2491C92.4161 41.4483 92.1777 40.6572 91.942 39.8887C89.8397 40.3681 87.672 40.4751 85.5176 40.5803C81.1753 40.7923 76.833 41.0043 72.4907 41.2164C72.7648 42.4171 73.039 43.6179 73.3131 44.8187C73.3732 45.0818 73.4407 45.359 73.6292 45.5531C73.8178 45.7471 74.1702 45.8107 74.3531 45.6114C73.7843 44.2837 73.2035 42.8513 73.4983 41.4384C73.8638 42.6578 74.2293 43.8773 74.5949 45.0967C74.6626 45.3226 74.7383 45.5613 74.9177 45.7157C75.1179 45.8881 75.4018 45.917 75.6662 45.9346ZM91.8646 39.4964C92.0314 39.2988 91.9036 38.898 91.6478 38.9418C85.485 39.9979 79.1716 39.5649 72.931 39.9696C72.5898 39.9917 72.1392 40.1342 72.1689 40.4728C73.1366 40.7979 74.1864 40.7414 75.2062 40.6811C80.5204 40.3671 85.8347 40.0531 91.1489 39.7391C91.4081 39.7238 91.6977 39.694 91.8646 39.4964Z" fill="#E7EAEE"/>
<path fill-rule="evenodd" clip-rule="evenodd" d="M87.982 80.3962C87.982 81.6656 90.4848 88.6456 89.9637 86.9178C90.0226 87.5934 90.449 88.8101 89.8623 89.1564C89.4881 89.3773 89.0162 89.3072 88.5889 89.2256C85.1798 88.5746 81.8274 87.6311 78.5812 86.409C78.0103 86.1941 77.3854 85.9166 77.1556 85.3546C76.795 84.4726 77.6154 83.5849 78.3547 82.9794C79.9765 81.6511 81.5984 80.3227 83.2203 78.9943C83.3402 78.8961 83.4768 78.7923 83.6318 78.8033C83.7868 78.8143 83.9184 79.0177 83.8088 79.1271C82.0684 80.5439 87.982 79.1267 87.982 80.3962Z" fill="white"/>
<path fill-rule="evenodd" clip-rule="evenodd" d="M89.8624 89.1568C89.4882 89.3777 89.0163 89.3076 88.589 89.226C85.1799 88.575 81.8275 87.6315 78.5813 86.4094C78.0104 86.1945 77.3855 85.917 77.1557 85.355C76.7951 84.473 78.0354 83.3871 79.0001 82.8638C80.6757 81.9549 82.4309 83.9375 84.7758 85.355C87.2608 86.8571 90.2887 87.8224 90.2164 87.6201" fill="#FFB61D"/>
<path fill-rule="evenodd" clip-rule="evenodd" d="M97.786 50.8947C97.6516 50.9148 97.6953 51.1195 97.774 51.2295C98.5944 52.3771 99.4148 53.5247 100.235 54.6723C100.375 54.8673 100.509 55.1531 100.337 55.3205C97.9514 54.269 96.0192 52.2421 95.0918 49.8181C95.2594 49.6302 95.5434 49.8848 95.6627 50.1062C96.4774 51.6197 97.5865 52.976 98.9108 54.078C99.0465 54.1909 99.2503 54.3023 99.3838 54.1867C98.1091 52.7195 97.0845 51.0381 96.3669 49.2357C96.3367 49.1601 96.3067 49.0781 96.3268 48.9992C96.3661 48.8451 96.5813 48.798 96.7238 48.8704C96.8662 48.9427 96.9521 49.0887 97.0348 49.2248C97.7536 50.4062 98.8178 51.3774 100.064 51.9888C100.185 51.7543 99.9729 51.4926 99.7839 51.3073C98.3493 49.9011 97.2991 48.1113 96.7741 46.1781C96.6686 45.7895 96.7152 45.2083 97.1199 45.1914C97.2215 46.1087 97.4807 47.0086 97.8829 47.8404C98.3836 48.8761 99.0966 49.7937 99.8041 50.7025C100.375 51.4361 100.946 52.1696 101.517 52.9032C101.407 53.0461 101.184 53.0039 101.014 52.9425C99.8044 52.5054 98.6939 51.8008 97.786 50.8947Z" fill="#00160A"/>
<path fill-rule="evenodd" clip-rule="evenodd" d="M84.372 48.219C86.0591 48.219 87.4267 49.2031 87.4267 50.417C87.4267 51.6309 86.3929 52.7419 84.7059 52.7419C83.0188 52.7419 81.3174 51.6309 81.3174 50.417C81.3174 49.2031 82.685 48.219 84.372 48.219ZM84.372 48.847C82.9982 48.847 81.7465 49.6017 81.7465 50.417C81.7465 51.2323 83.0261 52.2838 84.3999 52.2838C85.7738 52.2838 86.7947 51.2323 86.7947 50.417C86.7947 49.6017 85.7459 48.847 84.372 48.847Z" fill="#00160A"/>
<path fill-rule="evenodd" clip-rule="evenodd" d="M53.7918 74.7587C53.7506 74.8432 53.7284 74.9367 53.727 75.0306C53.5467 74.94 53.3664 74.8494 53.186 74.7588C53.8373 76.3572 54.4885 77.9556 55.1397 79.5539C55.2397 79.7993 55.3436 80.051 55.5269 80.2431C55.5112 79.7607 55.3674 79.2926 55.2247 78.8312C54.8112 77.4937 54.3976 76.1562 53.9841 74.8187C53.9521 74.7506 53.8571 74.721 53.7918 74.7587Z" fill="#FFB61D"/>
<path fill-rule="evenodd" clip-rule="evenodd" d="M56.6871 69.6912C56.894 70.0065 56.9111 70.4037 57.0135 70.766C57.2325 71.5412 57.8372 72.1421 58.2238 72.8498C58.6103 73.5575 58.708 74.575 58.057 75.0545C57.7435 75.2855 57.8021 75.7552 57.8453 76.1407C57.8884 76.5261 57.7869 77.0361 57.4003 77.0896C57.181 77.1199 56.9697 76.9671 56.8613 76.7752C56.7529 76.5833 56.7248 76.3585 56.6947 76.1405C56.4934 74.6846 56.1117 73.2535 55.561 71.8897C55.4233 71.5485 55.2889 71.1179 55.541 70.8488C55.8601 70.5084 55.4411 69.8759 55.7319 69.5113C55.9671 69.2164 56.4803 69.376 56.6871 69.6912Z" fill="#FFB61D"/>
<path fill-rule="evenodd" clip-rule="evenodd" d="M81.9951 68.7615C82.1413 68.4267 82.2875 68.0918 82.4338 67.757C82.6127 67.3472 82.9414 66.858 83.3771 66.9678C83.5076 67.0007 83.619 67.0873 83.7059 67.1896C84.1504 67.7127 83.9465 68.5349 83.5312 69.0812C83.2467 69.4556 82.876 69.7649 82.4557 69.9787C82.1995 70.1091 81.8799 69.8679 81.8216 69.5878C81.7633 69.3076 81.8805 69.024 81.9951 68.7615ZM83.1283 68.7695C83.2606 68.6067 83.3959 68.4381 83.4545 68.2371C83.5131 68.0362 83.4758 67.7924 83.3095 67.6641C82.7629 68.1699 82.3652 68.8327 82.1772 69.5511C82.3116 69.6737 82.5166 69.5224 82.6311 69.3813C82.7969 69.1774 82.9626 68.9735 83.1283 68.7695Z" fill="#FFB61D"/>
<path fill-rule="evenodd" clip-rule="evenodd" d="M73.35 69.5612C74.0129 69.0486 75.119 69.3611 75.4692 70.1197C75.8193 70.8784 75.3963 71.8703 74.6292 72.2103C74.4279 72.2995 74.2092 72.3496 73.989 72.357C73.5843 72.3705 73.1578 72.2223 72.9145 71.9006C72.661 71.5654 72.6449 71.1059 72.7248 70.6942C72.8088 70.262 73.0003 69.8315 73.35 69.5612Z" fill="#FFB61D"/>
<path fill-rule="evenodd" clip-rule="evenodd" d="M88.8929 37.896C88.3535 38.4146 87.4771 38.2549 86.7525 38.0602C86.4082 37.9677 86.0638 37.8752 85.7195 37.7827C85.3763 37.6905 84.9543 37.6185 84.7125 37.8774C84.4875 38.1182 84.0391 37.7872 84.1046 37.4651C84.1701 37.143 84.527 36.9614 84.8559 36.9272C86.015 36.8068 87.0629 37.9027 88.213 37.7155C88.473 37.6732 88.8504 37.6376 88.8929 37.896L88.8929 37.896Z" fill="#00160A"/>
<path fill-rule="evenodd" clip-rule="evenodd" d="M72.2451 67.8345C72.5229 67.6057 72.9218 67.4996 73.2558 67.6352C73.5898 67.7709 73.8053 68.1839 73.6606 68.5124C73.5613 68.7377 73.3322 68.8756 73.1093 68.9826C72.804 69.1292 72.4238 69.2407 72.1413 69.0543C71.7436 68.7919 71.8776 68.1372 72.2451 67.8345M72.5005 68.4333C72.3791 68.4935 72.4085 68.7125 72.5415 68.739C72.8359 68.6535 73.1164 68.5208 73.3687 68.3475C73.1308 68.1252 72.6947 68.1738 72.5124 68.4431L72.5005 68.4333Z" fill="#FFB61D"/>
<path fill-rule="evenodd" clip-rule="evenodd" d="M88.0341 54.6243C87.5626 54.7263 87.0384 54.515 86.7715 54.1155C88.978 54.2987 91.2482 53.5205 92.8716 52.0244C94.4951 50.5283 95.4467 48.3373 95.4287 46.1373C95.3028 46.1723 95.1821 46.2257 95.0717 46.2952C94.8217 46.1893 94.9865 45.8137 95.1782 45.6224L98.9266 41.8828C99.575 41.2359 98.7729 40.0177 97.854 40.0216C96.9352 40.0255 96.1984 40.7775 95.7149 41.5539C95.1613 42.4425 94.7838 43.4389 94.61 44.4696L92.6783 40.28C92.4505 40.7131 92.5816 41.1929 92.7156 41.6831C92.8007 41.9945 92.8869 42.31 92.883 42.6203C92.8662 43.9618 91.3012 44.6584 90.0035 45.0283L86.4722 46.035C85.5376 46.3015 84.2487 46.415 83.8682 45.526C83.4952 44.6547 82.0033 44.6304 81.6018 45.4891C81.2219 46.3017 80.1332 46.4347 79.2315 46.4312C77.5149 46.4247 75.7985 46.3346 74.0907 46.1616C73.8287 46.135 73.5479 46.0983 73.3532 45.9221C73.1784 45.764 73.1084 45.5245 73.0461 45.2979L71.9243 41.2177C71.802 40.7729 71.6824 40.2847 71.8733 39.8644C72.0641 39.4441 72.7169 39.2285 72.9963 39.5967C72.4482 37.401 72.355 35.0941 72.7241 32.8618L73.4229 39.5434L90.4478 38.8323C90.8181 38.8168 91.2496 38.7673 91.4414 38.4522C91.6096 38.1759 91.5119 37.8222 91.4083 37.5162C90.9919 36.2857 90.5501 35.0636 90.0834 33.8511C89.9392 33.4764 89.7812 33.0862 89.4725 32.8277C88.8168 32.2786 87.8325 32.5506 87.0171 32.8142C83.7912 33.8571 80.3163 34.3243 76.9873 33.6758C73.6583 33.0274 70.4913 31.1768 68.6852 28.3235C66.0156 24.106 66.7144 18.5673 68.5248 13.9211C69.659 11.0105 71.206 8.22847 73.3349 5.93359C73.72 6.05271 73.852 6.55797 73.7309 6.94024C73.6399 7.22772 73.4524 7.4687 73.2653 7.7092L73.2652 7.70929C73.2036 7.78855 73.1419 7.86776 73.0838 7.94857C72.3851 8.92001 72.1816 10.2253 72.5517 11.3613C73.0799 12.9826 74.6609 14.0889 76.319 14.5243C77.977 14.9597 79.725 14.8356 81.4352 14.7083L86.4754 14.3332C88.1546 14.2082 89.9155 14.0966 91.451 14.7832C92.9865 15.4699 94.1722 17.24 93.6027 18.8145C93.4273 19.2997 93.7068 19.8473 94.1057 20.1768C94.3937 20.4147 94.7353 20.5719 95.0769 20.729C95.2084 20.7895 95.3399 20.85 95.4684 20.9151C97.4158 21.9022 98.6277 23.9655 99.1039 26.0857C99.58 28.2059 99.4217 30.4095 99.2609 32.576L98.9244 37.1085C98.8469 38.153 98.7938 39.2916 99.3988 40.1493C100.128 41.1822 99.3276 42.6066 98.3834 43.4498C98.2215 43.5944 98.0524 43.7373 97.8822 43.8811C97.0596 44.5763 96.2113 45.293 96.0324 46.323C95.5178 49.2842 94.2397 52.4651 91.4817 53.6978C91.1053 53.866 90.712 53.9921 90.3187 54.1181L90.3186 54.1181L90.3186 54.1181C89.9385 54.2399 89.5583 54.3617 89.1933 54.5217C88.8478 54.6731 88.5174 54.858 88.1874 55.0427C87.7094 55.3102 87.2322 55.5772 86.7109 55.7415C85.0957 56.2506 83.3335 55.6929 81.8333 54.91C78.3815 53.1087 75.6059 50.0609 74.1458 46.4686C74.7097 46.466 75.0457 47.0707 75.2873 47.5769C76.7428 50.6268 79.2669 53.1603 82.3214 54.6372C84.139 55.516 86.5156 55.95 88.0341 54.6243ZM93.8004 21.0968C93.6325 21.027 93.4498 20.9617 93.272 21.0005C93.0413 21.0508 92.9009 21.2479 92.7591 21.4471C92.6933 21.5396 92.6272 21.6325 92.5515 21.7114C92.3129 21.9602 91.723 21.8997 91.8034 21.5654C92.2525 20.6769 92.7082 19.7678 92.8433 18.7826C92.9784 17.7974 92.737 16.7047 91.9823 16.0519C91.4604 15.6005 90.7629 15.4097 90.0816 15.2901C87.8971 14.9068 85.6695 15.1219 83.4523 15.336C82.9815 15.3815 82.5111 15.4269 82.0418 15.4666C79.3621 15.6929 76.5441 15.7038 74.1341 14.5179C72.4962 13.7119 71.5209 11.7567 71.8673 9.97339C68.9858 13.4596 67.6895 18.1197 68.0258 22.6186C68.1224 23.9123 68.3496 25.2055 68.8267 26.413C70.0064 29.3989 72.6949 31.6668 75.7463 32.7142C78.7976 33.7615 82.1692 33.6664 85.2881 32.8385C88.407 32.0107 91.2976 30.4818 93.9904 28.7125C94.1658 28.5973 94.3934 28.8492 94.3389 29.051C94.2843 29.2528 94.0831 29.374 93.8988 29.4747L89.2276 32.0255C90.1611 32.5126 90.6656 33.5322 91.0622 34.503C91.5675 35.7398 91.9978 37.0068 92.3501 38.295L97.3571 34.2989C97.5309 34.1602 97.8838 34.0918 97.891 34.3132L93.1151 38.2596C92.8741 38.4588 92.6079 38.7236 92.6703 39.0289L97.2125 35.3118C97.6976 34.9148 98.216 34.4623 98.3149 33.8457C98.7586 31.0817 99.1877 28.1633 98.1689 25.5538C97.3934 23.5673 95.7785 21.9197 93.8004 21.0968ZM74.9176 45.7159C75.1179 45.8883 75.4018 45.9173 75.6662 45.9349C77.0477 46.0268 78.4356 46.0233 79.8166 45.9244C80.3352 45.8872 80.9482 45.7718 81.1552 45.2978C81.4043 44.7274 82.0051 44.3266 82.6307 44.3136C83.2563 44.3005 83.8735 44.6759 84.1465 45.2354C84.4397 45.8364 85.3015 45.8051 85.9584 45.6637C87.703 45.2884 89.4197 44.7847 91.0896 44.158C91.846 43.8742 92.2858 43.0502 92.3509 42.2493C92.416 41.4485 92.1777 40.6575 91.942 39.8889C89.8397 40.3683 87.672 40.4753 85.5176 40.5805L72.4907 41.2166L73.3131 44.8189C73.3731 45.082 73.4406 45.3592 73.6292 45.5533C73.8178 45.7474 74.1702 45.811 74.3531 45.6116C73.7843 44.2839 73.2035 42.8516 73.4983 41.4386L74.5948 45.0969C74.6626 45.3229 74.7383 45.5616 74.9176 45.7159ZM91.149 39.7401C91.4081 39.7248 91.6977 39.695 91.8646 39.4973C92.0315 39.2997 91.9037 38.8989 91.6479 38.9428C87.7034 39.6187 83.6973 39.6847 79.6881 39.7506H79.688C77.4332 39.7878 75.1774 39.8249 72.9311 39.9706C72.5898 39.9927 72.1393 40.1352 72.1689 40.4737C73.1367 40.7989 74.1865 40.7423 75.2063 40.6821L91.149 39.7401ZM97.8843 36.7239C98.1264 36.4988 98.1832 36.1445 98.2262 35.8178L98.3443 34.9218L93.1491 39.2068C93.0713 39.271 92.9888 39.3424 92.9664 39.4404C92.9428 39.5438 92.9923 39.6483 93.0403 39.7429L94.6474 42.9086C94.9812 40.5631 96.1435 38.3423 97.8843 36.7239ZM98.194 37.7361C98.2085 37.4937 98.2141 37.2237 98.0531 37.041C97.2483 37.9773 96.5413 38.9965 95.947 40.0769C95.8739 40.2099 95.8108 40.3964 95.9272 40.4943C96.4943 40.0232 97.1522 39.6604 97.8545 39.4312C98.0639 39.3629 98.1126 39.0955 98.1257 38.8769L98.194 37.7361ZM77.0386 61.755C71.1812 64.1177 66.4665 69.1262 64.4849 75.0912C66.812 76.6089 72.717 78.289 72.717 78.289C73.5814 78.51 74.5209 78.4284 75.3337 78.062C71.7137 77.6955 68.1771 76.5367 65.0477 74.6918C67.7792 67.925 73.8983 62.607 81.0112 60.8179C81.6102 62.0589 82.2312 63.3305 83.2416 64.2721C84.2519 65.2136 85.7542 65.7646 87.0517 65.2828C88.913 64.5917 90.6883 63.6725 92.3247 62.5525C92.9747 63.8381 93.1029 65.373 92.6878 66.7501L92.564 67.1139C92.6096 66.994 92.6509 66.8727 92.6878 66.7501L93.4743 64.4388L101.369 69.2599C102.939 70.219 104.538 71.2019 105.728 72.6009C106.95 74.0378 107.655 75.8071 108.359 77.5756C109.079 79.3833 109.798 81.1901 111.07 82.6398C108.72 84.3447 106.156 85.7569 103.456 86.833L101.258 79.1412L104.06 95.9481C104.186 93.0657 103.996 90.1698 103.497 87.3276C106.522 86.2633 109.344 84.6326 111.771 82.5466C110.22 81.1382 109.472 79.1699 108.718 77.1855C108.177 75.7616 107.633 74.3294 106.787 73.0897C104.343 69.5087 97.3413 65.6199 94.5419 64.0651C93.828 63.6686 93.3874 63.4238 93.3653 63.3746C91.6706 61.0348 90.6469 58.2206 90.4443 55.3448C90.1117 57.6915 90.5743 60.1424 91.74 62.2098C89.9643 63.4699 87.938 64.6305 85.7585 64.5285C83.5789 64.4265 81.3727 62.5368 81.7221 60.3966C83.4764 60.0043 84.7685 58.1605 84.5301 56.3894C83.8665 59.117 80.8828 60.267 78.1485 61.3208L78.1483 61.3209C77.7714 61.4661 77.3993 61.6095 77.0386 61.755ZM63.5566 101.089C62.1451 101.414 60.4514 102.088 59.3082 103.439C58.5079 104.384 57.9605 105.117 57.4993 105.735C56.7366 106.757 56.2101 107.463 55.1667 108.286C55.7614 107.924 56.4473 108.71 56.4821 109.402C56.4941 109.642 56.4717 109.887 56.4493 110.131C56.4072 110.591 56.3654 111.047 56.5549 111.458C57.0517 111.152 57.5615 110.833 57.9048 110.362C58.248 109.892 58.3879 109.225 58.0886 108.726C57.9863 108.556 58.1367 108.348 58.28 108.21C59.1645 107.355 60.1715 106.625 61.261 106.05C61.4151 106.507 61.3678 107.027 61.134 107.449L61.6654 108.066L60.435 111.126L63.5102 108.018C64.1222 107.4 64.9618 106.728 65.7693 107.053C66.1795 107.219 66.4386 107.597 66.6926 107.969C66.749 108.051 66.8052 108.133 66.8627 108.212C67.4822 109.067 68.3996 109.702 69.42 109.985C69.4355 109.711 69.5793 109.447 69.8015 109.284C70.1044 109.778 70.6026 110.149 71.1642 110.3L70.4067 107.067C70.3667 106.896 70.3288 106.707 70.4125 106.553C70.6231 106.164 71.2272 106.436 71.5092 106.776C71.7913 107.115 72.2092 107.54 72.5925 107.318L72.2881 106.273C72.1854 105.92 72.3574 105.329 72.6742 105.517C72.7782 105.579 72.8163 105.708 72.8459 105.825L73.4245 108.112C74.1622 107.276 74.0839 105.957 73.5417 104.986C73.4596 104.839 73.3912 104.683 73.3191 104.518C72.9147 103.595 72.3943 102.408 68.7046 101.095C68.1624 100.902 67.5536 100.884 66.9448 100.865C66.6404 100.856 66.3359 100.847 66.0399 100.816C65.8121 100.792 65.0614 100.804 64.1044 100.977C65.1911 108.812 64.4212 108.818 63.5566 101.089ZM64.0124 100.302C64.318 100.26 64.6302 100.239 64.9491 100.241C64.9003 100.241 74.8322 99.7616 74.8267 107.125C74.8261 107.837 74.4011 108.714 73.6893 108.689C75.1914 112.501 76.9428 116.214 78.9288 119.799C77.04 120.414 75.0195 120.621 73.0455 120.405C70.413 122.943 66.1637 123.646 62.8529 122.091C63.2926 122.832 61.9457 123.286 61.0974 123.118L52.0911 121.339C51.3831 121.199 50.5016 120.859 50.5139 120.141C50.523 119.607 51.0462 119.248 51.4977 118.959C54.325 117.145 56.5365 114.397 57.6967 111.256C57.2964 112.231 55.4629 111.818 55.526 110.767C53.0281 109.83 50.5163 111.976 48.7075 113.934L38.4281 125.061L75.6803 126.9C77.7738 127.003 79.453 125.282 80.8227 123.701L90.4732 112.562L75.1441 111.234C80.7266 111.234 86.3087 111.557 91.8525 112.203C87.6562 117.213 83.2983 122.09 78.7877 126.822C78.1071 127.536 76.9976 127.578 76.0093 127.57C63.4195 127.456 50.8342 126.915 38.2828 125.948C37.6622 125.674 38.0511 124.739 38.5103 124.241L47.9117 114.032C50.0319 111.729 52.9528 109.205 55.9061 110.25C56.2561 110.019 55.9629 109.715 55.6258 109.366C55.3999 109.132 55.1542 108.878 55.0692 108.611C54.9575 108.261 55.1717 107.898 55.3765 107.591C57.4287 104.523 60.0221 101.151 63.481 100.396C62.6247 92.3418 62.485 83.9442 65.6183 76.4757C63.519 84.2107 62.9708 92.3579 64.0124 100.302ZM93.2556 81.408C93.2505 80.7915 93.3486 80.1603 93.4455 79.5373C93.6521 78.2085 93.8529 76.9168 93.0344 75.8834C92.3148 74.9748 91.0523 74.6918 89.8892 74.6632C87.7955 74.6117 85.5659 75.1326 84.0872 76.6064C83.911 76.782 83.8422 77.2531 84.0354 77.2107C84.479 77.1133 84.8455 76.9113 85.2058 76.7127C85.5256 76.5364 85.8406 76.3627 86.2004 76.2673C86.9656 76.0646 87.8425 76.1216 88.4662 76.6064C86.9045 76.3239 83.8944 77.2112 84.0872 77.968C84.2286 78.5228 85.1059 78.1894 85.8804 77.8952C86.1626 77.7879 86.4312 77.6859 86.6455 77.6339C87.3405 77.4653 88.3823 77.5399 88.3927 78.2507C88.3991 78.6803 87.9676 78.9699 87.5881 79.1759C87.2983 79.3332 86.8965 79.4868 86.4947 79.6403C85.691 79.9475 84.8874 80.2546 84.98 80.5918C85.1095 81.0637 85.7283 80.8675 86.4212 80.6478C86.962 80.4763 87.5479 80.2905 87.9818 80.3967C88.9438 80.6321 89.3602 81.7337 89.6248 82.6824L89.7626 83.1762C91.1476 88.1443 92.5375 93.1294 94.6083 97.8547C96.0417 101.126 97.8781 104.353 100.737 106.511C101.072 106.764 101.439 107.008 101.857 107.055C102.263 107.101 102.665 106.955 103.04 106.792C105.995 105.504 108.319 103.02 109.815 100.179C110.413 99.0424 110.894 97.8306 111.073 96.5608C111.234 95.4225 111.15 94.2648 111.037 93.1208C110.799 90.7119 110.434 88.3155 109.943 85.9447C109.824 85.3728 109.733 84.6847 110.165 84.2888C110.799 87.1453 111.259 90.0399 111.542 92.9514C111.667 94.2318 111.756 95.5291 111.555 96.7998C111.343 98.1346 110.814 99.4032 110.157 100.586C108.701 103.209 106.589 106.098 104.064 107.735C103.656 108 103.224 108.253 102.744 108.338C101.681 108.525 100.666 107.857 99.8587 107.146C95.7778 103.554 93.7314 97.621 92.0329 92.4735C91.4674 90.7596 90.924 89.0385 90.4029 87.3107C90.4618 87.9862 90.4488 88.8107 89.8621 89.1569C89.488 89.3778 89.0161 89.3077 88.5887 89.2261C85.1797 88.5751 81.8272 87.6316 78.581 86.4095C78.0101 86.1946 77.3852 85.9171 77.1554 85.3551C76.7948 84.4731 77.6152 83.5854 78.3545 82.9799L83.2201 78.9948C83.34 78.8966 83.4767 78.7928 83.6316 78.8038C83.7866 78.8148 83.9182 79.0182 83.8086 79.1276L78.5874 83.378C77.9956 83.8597 77.3433 84.6275 77.7358 85.28C77.9088 85.5678 78.2394 85.7169 78.5514 85.8444C81.6571 87.1138 84.9282 87.9383 88.2135 88.6296C88.6243 88.716 89.059 88.7993 89.4566 88.6655C89.8543 88.5317 90.1815 88.0965 90.0409 87.7034L88.3437 82.9558C88.1193 82.328 87.9917 81.4443 88.5986 81.1612C87.6011 80.8297 86.4789 80.8851 85.5193 81.3131C84.9393 81.5719 84.4727 80.6043 84.838 80.0872C85.1449 79.6528 85.6845 79.4896 86.2073 79.3316L86.2082 79.3313C86.3074 79.3013 86.406 79.2715 86.5023 79.24C87.1063 79.0427 87.7644 78.5983 87.7202 77.968C86.6644 78.1283 85.6229 78.3819 84.6121 78.7249C84.1326 78.8876 83.6413 78.4253 83.5201 77.9365C83.1951 76.6259 84.5257 75.5053 85.7789 74.9847C87.0828 74.4431 88.4876 74.1422 89.9003 74.1019C90.1875 74.0938 90.3537 73.7837 90.4595 73.5182L91.8384 70.0579L88.7976 69.2068L86.6403 74.3481C86.1846 74.1115 86.4172 73.4294 86.6784 72.9893C87.5228 71.567 88.0607 69.966 88.2456 68.3248C89.5085 68.158 90.8328 68.5102 91.8429 69.2815C92.0072 69.407 92.1702 69.5528 92.2354 69.7482C92.3195 70.0003 92.223 70.273 92.1275 70.5211L90.7138 74.191C91.9779 74.1919 93.2065 74.9868 93.7188 76.1352C94.1643 77.1339 94.0752 78.2405 93.986 79.349C93.9495 79.8024 93.9129 80.2561 93.9129 80.7028C93.9129 83.6069 95.4775 86.2542 96.9935 88.7371L98.5946 91.3593C99.1121 92.207 99.6326 93.0587 100.279 93.8137C101.509 95.2496 103.189 96.2996 105.024 96.78C103.413 96.8891 101.847 96.0955 100.678 94.989C99.5085 93.8825 98.6724 92.4817 97.8515 91.1002L95.3044 86.8138C94.3284 85.1713 93.2712 83.3153 93.2556 81.408ZM88.8427 81.9325C88.805 81.8262 88.7565 81.7082 88.6513 81.6661C88.4749 81.9408 88.5505 82.2996 88.6402 82.613C88.9913 83.8394 89.4674 85.0303 90.0589 86.1618C89.8273 84.7116 89.3338 83.3173 88.8427 81.9325ZM88.7168 68.7117C89.4873 69.101 90.3462 69.3161 91.2103 69.3361C90.4678 68.8848 89.5858 68.6639 88.7168 68.7117ZM90.1993 86.8467C90.1578 86.9635 90.2509 87.107 90.3751 87.1176C90.3389 86.8044 90.2402 86.4985 90.0865 86.2227C90.025 86.4235 90.0609 86.6515 90.1811 86.8241L90.1993 86.8467ZM101.695 112.327C101.528 112.266 101.53 112.034 101.564 111.86L102.076 109.201C102.109 109.034 102.182 108.828 102.352 108.816C102.567 108.801 102.643 109.093 102.634 109.307C102.595 110.223 102.413 111.134 102.095 111.995C102.028 112.176 101.877 112.394 101.695 112.327ZM55.2271 120.936C53.8215 121.123 52.2398 121.265 51.1336 120.384C51.0648 120.33 50.9966 120.268 50.9629 120.187C50.8208 119.846 51.3243 119.628 51.6862 119.542C52.9424 119.244 53.8765 118.215 54.6605 117.194C56.4324 114.884 57.8792 112.328 58.9453 109.624C58.9667 109.57 58.988 109.515 59.0094 109.461C59.3973 108.472 59.8066 107.428 60.6779 106.828C61.0241 108.344 60.6614 110.005 59.7142 111.243C59.8629 111.526 60.2543 111.603 60.5574 111.5C60.8605 111.396 61.0953 111.16 61.3182 110.93L63.7787 108.399C64.3564 107.805 65.2711 107.175 65.9237 107.686C66.1368 107.852 66.2513 108.101 66.3659 108.351C66.4095 108.446 66.4532 108.541 66.5023 108.631C67.0667 109.67 68.2425 110.012 69.4332 110.358C69.9904 110.52 70.5509 110.683 71.0535 110.919C71.2272 111 71.4757 111.073 71.5765 110.91C71.6105 110.855 71.614 110.788 71.6157 110.723C71.6498 109.446 71.3606 108.162 70.7822 107.023C71.8319 107.532 72.9767 108.143 73.3614 109.24C74.6144 112.812 76.1444 116.288 77.9334 119.626C75.7796 120.02 73.5445 119.963 71.4148 119.462C71.3709 119.988 71.8104 120.506 72.339 120.551C71.2863 120.869 70.2393 121.205 69.1987 121.561L69.9889 122.209C67.285 122.387 64.5562 122.175 61.914 121.581C61.9623 122.01 62.0499 122.435 62.1754 122.847C60.2198 122.51 58.2916 122.017 56.4154 121.374L56.7287 120.736L55.2271 120.936Z" fill="#00160A"/>
<path fill-rule="evenodd" clip-rule="evenodd" d="M73.0462 66.821C72.8423 66.9068 72.5802 66.9125 72.4245 66.7561C72.2318 66.5627 72.2965 66.2368 72.4163 65.992C72.5225 65.7752 72.6709 65.566 72.8881 65.4583C73.1053 65.3507 73.402 65.3749 73.5521 65.5644C73.6442 65.6807 73.6683 65.838 73.6558 65.9854C73.6253 66.3457 73.3813 66.6802 73.0462 66.821Z" fill="#FFB61D"/>
<path fill-rule="evenodd" clip-rule="evenodd" d="M78.4952 37.9746C78.1814 38.1114 77.9006 37.7257 77.5771 37.6132C77.2394 37.4958 76.8808 37.6914 76.5747 37.8755C75.9304 38.2629 75.2742 38.6306 74.6072 38.978C74.4704 39.0493 74.322 39.1219 74.1688 39.102C74.0156 39.0821 73.8723 38.9245 73.9285 38.7815C73.96 38.7012 74.0405 38.6524 74.1157 38.6095C74.6771 38.2894 75.2384 37.9692 75.7998 37.6491C76.5247 37.2356 77.3601 36.808 78.158 37.0554C78.3619 37.1187 78.5629 37.2363 78.6561 37.4273C78.7492 37.6183 78.6909 37.8893 78.4952 37.9746V37.9746Z" fill="#00160A"/>
<path fill-rule="evenodd" clip-rule="evenodd" d="M79.8814 49.8176C79.6905 50.2779 79.4 50.8121 78.8996 50.8358C78.4521 50.857 78.1021 50.4264 77.9968 49.9938C77.85 49.3911 78.0812 48.6722 78.6379 48.3923C79.1947 48.1124 80.0129 48.4714 80.0581 49.0898C80.0764 49.3411 79.978 49.5847 79.8814 49.8176H79.8814Z" fill="#FFB61D"/>
<path fill-rule="evenodd" clip-rule="evenodd" d="M89.6784 49.428L89.6834 49.5254C89.7123 50.0012 89.8182 50.5385 90.2505 50.7185C90.6637 50.8905 91.1408 50.6047 91.3887 50.234C91.7341 49.7176 91.7643 48.9635 91.3375 48.5112C90.9106 48.059 90.0182 48.1183 89.7629 48.684C89.6592 48.9139 89.6678 49.1763 89.6784 49.428Z" fill="#FFB61D"/>
<path fill-rule="evenodd" clip-rule="evenodd" d="M90.5418 40.6633C90.6723 40.6291 90.8348 40.6275 90.916 40.7347C90.9701 40.8062 90.9696 40.9034 90.9647 40.9927C90.9433 41.384 90.7743 41.8759 90.3801 41.8847C90.0769 41.8915 89.8498 41.5454 89.9116 41.2503C89.9733 40.9553 90.2485 40.7402 90.5418 40.6633V40.6633Z" fill="#FFB61D"/>
<path fill-rule="evenodd" clip-rule="evenodd" d="M89.8763 43.8768C89.6836 43.5373 90.074 43.1703 90.4136 42.9753C90.6955 42.8133 91.1394 42.6977 91.2754 42.9917C91.369 43.1939 91.2139 43.4182 91.0677 43.5868C90.91 43.7686 90.7428 43.9565 90.5182 44.0449C90.2936 44.1333 89.995 44.0858 89.8763 43.8768L89.8763 43.8768Z" fill="#FFB61D"/>
<path fill-rule="evenodd" clip-rule="evenodd" d="M87.1832 42.2849C87.1322 42.4172 87.0757 42.5543 86.968 42.6472C86.8188 42.7759 86.5974 42.7927 86.4067 42.7408C86.0209 42.6358 85.727 42.2484 85.7514 41.8516C85.7758 41.4549 86.1312 41.0996 86.5312 41.0919C86.9312 41.0842 87.3066 41.4432 87.2961 41.8405C87.2921 41.994 87.2384 42.1414 87.1832 42.2849Z" fill="#00160A"/>
<path fill-rule="evenodd" clip-rule="evenodd" d="M77.532 42.88C77.0886 42.8344 76.7583 42.328 76.8974 41.9072C77.0366 41.4864 77.6048 41.2734 77.989 41.498C78.3731 41.7226 78.4618 42.3196 78.1592 42.6449C78.0019 42.8139 77.7624 42.9037 77.532 42.88H77.532Z" fill="#00160A"/>
<path fill-rule="evenodd" clip-rule="evenodd" d="M82.7549 48.9929L83.6334 48.8301L83.6442 48.9666C83.7107 49.9217 83.5542 50.3697 83.1748 50.3105C82.7887 50.2502 82.6457 49.8334 82.7457 49.0601L82.7549 48.9929ZM83.4368 49.0762L83.0447 49.1852C82.9924 49.7316 83.0549 50.0256 83.2321 50.0671C83.4093 50.1085 83.4775 49.7782 83.4368 49.0762Z" fill="#00160A"/>
<path fill-rule="evenodd" clip-rule="evenodd" d="M84.5311 48.7983L85.7072 48.6377L85.7213 48.7695C85.8111 49.7136 85.6017 50.1564 85.0933 50.0979C84.5753 50.0384 84.3841 49.6256 84.5197 48.8595L84.5311 48.7983ZM84.7244 48.8986C84.646 49.3587 84.7303 49.8558 84.9961 49.8908C85.2619 49.9257 85.4549 49.6074 85.3938 49.0162L85.2945 48.99C85.2178 48.9705 85.1562 48.9566 85.1095 48.9484L85.0472 48.9383C84.9668 48.9263 84.8592 48.913 84.7244 48.8986Z" fill="#00160A"/>
<path fill-rule="evenodd" clip-rule="evenodd" d="M71.25 87.7134C70.9699 88.1261 70.6898 88.5388 70.4098 88.9515C70.2394 88.9487 70.2291 88.6987 70.2776 88.5364C70.539 87.6614 70.8005 86.7864 71.0619 85.9114C70.8777 85.8295 70.7076 86.0461 70.6222 86.2277C69.7593 88.0619 68.8933 89.904 68.307 91.8431C67.7208 93.7821 67.4204 95.8362 67.7138 97.8397C67.905 97.3959 68.0963 96.9521 68.2875 96.5083C68.5912 95.8033 68.8962 95.096 69.2893 94.4361C69.7174 93.7174 70.2467 93.0609 70.6566 92.3319C71.0665 91.6028 71.3574 90.7686 71.247 89.9407C71.0816 90.1693 70.9162 90.3979 70.7508 90.6266C70.2831 89.7223 71.5434 88.6875 71.25 87.7134Z" fill="#FFB61D"/>
<path fill-rule="evenodd" clip-rule="evenodd" d="M59.171 86.735C59.5956 86.7409 59.2289 85.86 59.6109 85.6759C59.8531 85.5591 60.0759 85.865 60.1668 86.1169C60.7791 87.8138 61.1378 89.6009 61.2278 91.4014C61.3296 93.4399 62.7367 95.4199 62.1647 97.3802C62.1242 97.519 62.0701 97.661 61.9617 97.7573C61.5728 98.103 61.0077 97.5995 60.7604 97.1429C59.912 95.5763 59.3341 93.8655 59.0595 92.1075C58.999 91.7203 58.9497 91.3206 58.76 90.9771C58.6005 90.6883 58.3513 90.458 58.1768 90.178C57.8328 89.6261 57.8098 88.9417 57.7968 88.2927C57.773 87.1069 57.7492 85.921 57.7255 84.7352C57.7168 84.3042 57.8209 83.7355 58.2518 83.6861C58.7147 84.6468 59.0261 85.6796 59.171 86.735Z" fill="#FFB61D"/>
<path fill-rule="evenodd" clip-rule="evenodd" d="M51.1333 120.369C52.2405 121.25 53.8226 121.109 55.2286 120.923C55.7292 120.857 56.2299 120.791 56.7306 120.724C56.6263 120.937 56.522 121.149 56.4177 121.361C58.295 122.005 60.2242 122.5 62.1808 122.838C62.0549 122.425 61.967 122.001 61.9183 121.573C64.5619 122.168 67.2918 122.382 69.9965 122.206C69.7329 121.99 69.4693 121.774 69.2056 121.558C70.2463 121.204 71.2934 120.868 72.3462 120.552C71.8175 120.506 71.3773 119.988 71.4209 119.463C73.5517 119.965 75.7876 120.023 77.9419 119.631C76.1498 116.295 74.6166 112.821 73.3605 109.251C72.9748 108.155 71.8292 107.543 70.7787 107.034C71.3582 108.173 71.6484 109.456 71.6153 110.732C71.6136 110.796 71.6102 110.864 71.5762 110.919C71.4756 111.081 71.2268 111.008 71.053 110.927C69.4757 110.187 67.3285 110.163 66.4986 108.638C66.3203 108.31 66.2137 107.923 65.919 107.693C65.2659 107.183 64.3513 107.811 63.7738 108.404C62.9539 109.246 62.1341 110.089 61.3143 110.931C61.0915 111.16 60.8569 111.397 60.5537 111.5C60.2505 111.603 59.859 111.525 59.71 111.243C60.6566 110.007 61.0182 108.347 60.6707 106.832C59.7515 107.464 59.3472 108.59 58.9396 109.624C57.8752 112.325 56.4298 114.878 54.659 117.184C53.8755 118.204 52.9419 119.231 51.6854 119.528C51.3235 119.613 50.82 119.831 50.9623 120.172C50.9961 120.253 51.0644 120.314 51.1333 120.369Z" fill="white"/>
<path fill-rule="evenodd" clip-rule="evenodd" d="M72.7858 100.514C71.8987 92.3605 71.7121 83.8363 74.8879 76.2666C72.743 84.1699 72.2172 92.5034 73.3522 100.611C74.4881 108.726 73.6721 108.66 72.7858 100.514Z" fill="#00160A"/>
<path fill-rule="evenodd" clip-rule="evenodd" d="M63.0523 78.8748C63.1031 78.3301 63.1752 77.7875 63.2685 77.2484C63.3179 76.9628 63.7417 76.8912 63.9737 77.0667C64.2058 77.2422 64.2874 77.5474 64.3506 77.8303C65.323 82.1828 65.372 86.7367 64.4934 91.1089C64.4104 91.5219 64.1942 92.0349 63.771 92.0107C63.4014 91.9895 63.2164 91.5661 63.1154 91.2121C62.3114 88.3932 61.5942 85.5499 60.9649 82.6875C60.8024 81.9482 60.6448 81.1944 60.7106 80.4405C60.7765 79.6866 61.0985 78.9196 61.7223 78.4854C61.9628 78.318 62.2604 78.203 62.5486 78.2588C62.8369 78.3145 63.0925 78.5857 63.0523 78.8748" fill="#FFB61D"/>
<path fill-rule="evenodd" clip-rule="evenodd" d="M71.4638 106.923C71.7762 107.459 72.8188 107.647 72.6751 107.314C72.5314 106.98 72.4864 106.7 72.3427 106.367C72.1972 106.029 72.2952 105.423 72.633 105.571C72.7439 105.62 72.7976 105.743 72.8413 105.855C73.1269 106.588 73.1433 107.384 73.4289 108.117C74.4921 107.2 73.8295 104.973 73.1714 104.075C72.5133 103.178 72.2848 101.849 67.7772 100.838C66.9339 100.649 65.9596 100.655 65.0661 100.67C64.4783 100.679 60.5644 101.339 58.6996 103.78C56.8349 106.221 56.6643 106.766 55.1646 108.277C55.7246 108.117 56.3339 108.609 56.4537 109.291C56.5735 109.973 56.088 110.909 56.4537 111.499C58.5122 111.02 58.1775 109.303 58.3027 109.149C59.0756 108.194 59.7177 106.689 60.9966 106.649C61.2059 107.083 61.1208 107.576 61.043 108.051C61.2442 108.234 60.6359 110.179 60.3544 111.24C61.2445 110.089 62.5825 109.48 63.4727 108.329C64.0041 107.642 64.755 106.874 65.597 107.1C66.1197 107.24 66.4278 107.934 66.7959 108.329C67.5164 109.101 68.3763 109.828 69.4243 109.985C69.4059 109.712 69.6697 109.607 69.8702 109.419C70.2319 109.872 70.6863 110.299 71.2625 110.381C70.8789 109.342 70.9165 108.238 70.5329 107.2C70.4721 107.035 70.4112 106.852 70.4753 106.689C70.6365 106.279 71.1515 106.387 71.4638 106.923Z" fill="#FFB61D"/>
<path fill-rule="evenodd" clip-rule="evenodd" d="M113.144 44.8506C113.673 44.8379 114.076 44.9412 114.838 45.2439C114.838 45.2439 116.227 45.8964 116.177 46.0625C116.127 46.2287 115.338 46.1245 115.054 46.0097L114.696 45.864C114.031 45.5964 113.676 45.4907 113.296 45.4788L113.247 45.4777L113.245 45.4989L113.243 45.5239C113.234 45.652 113.262 45.8212 113.304 45.9185C113.381 46.0995 113.473 46.2777 113.578 46.4514L113.646 46.5614L113.725 46.5707C114.744 46.6982 115.729 47.0906 116.371 47.6547L116.428 47.7064C117.143 48.3691 117.454 48.8457 117.292 49.2172C117.113 49.6275 116.609 49.5949 115.962 49.3281C115.026 48.942 114.042 48.1766 113.347 47.2384L113.291 47.1616L113.273 47.1606C113.153 47.1543 113.033 47.1524 112.914 47.1549L112.825 47.1577C111.545 47.2104 110.643 47.7633 110.393 48.7555C110.309 49.0886 110.36 49.4342 110.518 49.7711L110.549 49.8346L110.561 49.8351C111.736 49.8822 112.845 50.2243 113.459 50.7787L113.506 50.8229C113.837 51.1413 114.046 51.4089 114.136 51.6376C114.258 51.9469 114.168 52.2396 113.878 52.3676C113.532 52.5199 112.92 52.3906 112.238 52.0759C111.376 51.6778 110.649 51.1225 110.201 50.4871L110.181 50.4584L110.118 50.4596C110.06 50.4611 110.002 50.4634 109.944 50.4665L109.858 50.4718C108.467 50.5666 107.449 51.1038 107.189 51.9515C107.092 52.2677 107.17 52.7015 107.378 53.1542L107.389 53.1778L107.447 53.1766C108.123 53.1681 108.806 53.3888 109.413 53.8704L109.512 53.9505C109.587 54.009 109.725 54.1136 109.712 54.1034L109.799 54.1726C110.189 54.4911 110.347 54.752 110.165 55.1132C109.701 56.0304 108.647 55.7169 107.713 54.7387C107.466 54.4802 107.247 54.1989 107.067 53.9089L107.03 53.8487L106.98 53.8588C106.497 53.9616 106.032 54.2113 105.633 54.5904L105.584 54.6385C104.77 55.4456 104.567 56.4854 105.108 57.3027L105.145 57.3574L105.178 57.3723C105.366 57.4585 105.571 57.5662 105.815 57.7029L106.066 57.8452L106.361 58.0147C106.393 58.0324 106.419 58.0494 106.443 58.0686C106.519 58.1295 106.568 58.1899 106.574 58.3147C106.585 58.5355 106.439 58.6284 106.289 58.6482C106.25 58.6533 106.216 58.6521 106.178 58.6475C106.096 58.6379 105.975 58.6069 105.836 58.5624C105.503 58.4556 105.198 58.3191 105.043 58.1804C104.936 58.0847 104.839 57.9848 104.753 57.8813L104.743 57.8694L104.74 57.8685C104.582 57.8048 104.435 57.7593 104.281 57.7245L104.234 57.7144C103.729 57.6085 103.189 57.6404 102.385 57.7853C101.117 58.0139 100.514 59.2113 100.733 60.2041L100.738 60.2271L100.758 60.2342C100.971 60.3128 101.189 60.4352 101.486 60.6261L101.748 60.7955C102.036 60.9797 102.231 61.162 102.343 61.4085C102.481 61.7134 102.241 62.2235 101.829 62.1081C101.036 61.8855 100.521 61.3946 100.26 60.8036L100.237 60.7507L100.226 60.7489C98.9576 60.5701 97.2643 61.2099 96.2276 62.2117L96.1674 62.271C95.7531 62.6875 95.5054 63.0975 95.4381 63.4856L95.4353 63.5032L95.5024 63.4983C95.7918 63.4795 96.0526 63.4856 96.2647 63.519L96.3268 63.5298C97.293 63.7157 97.8889 63.9245 98.1766 64.1801C98.5467 64.5089 98.4534 64.9163 98.0731 65.1942C97.6185 65.5265 96.541 65.8145 96.2562 65.6682C95.5025 65.281 95.049 64.7896 94.8721 64.2502L94.8596 64.2103L94.847 64.2127C94.4423 64.2859 94.0106 64.3986 93.6072 64.545L93.5212 64.5769C92.3839 65.0078 91.7719 65.6347 91.6098 66.2995C91.4145 67.1009 93.2579 68.7266 93.1154 68.8268C92.9729 68.9269 92.3733 68.3936 92.0793 68.1167L92.0289 68.0693C91.1975 67.2893 90.9178 66.8964 90.9807 66.2401C91.0744 65.2612 91.9577 64.4971 93.296 63.9901C93.7681 63.8112 94.2798 63.6748 94.7633 63.5896L94.7909 63.5846L94.7933 63.5551C94.8413 63.0013 95.1415 62.4245 95.6719 61.8765L95.7179 61.8295C96.8011 60.7407 98.5471 60.0204 99.9966 60.0968L100.071 60.1015L100.067 60.0571C99.9494 58.8331 100.714 57.4906 102.194 57.1826L102.272 57.1674L102.486 57.1304C103.182 57.0157 103.706 56.9883 104.213 57.0715L104.3 57.0871L104.288 57.0506C103.985 56.117 104.288 55.0672 105.087 54.2451L105.137 54.194C105.596 53.7387 106.139 53.4261 106.71 53.2768L106.738 53.2697L106.722 53.231C106.526 52.7323 106.459 52.2403 106.569 51.8244L106.585 51.7681C106.932 50.6381 108.147 49.9798 109.728 49.8517L109.814 49.8453L109.857 49.8425L109.844 49.8085C109.714 49.4388 109.68 49.0532 109.766 48.6643L109.78 48.6029C110.108 47.303 111.265 46.5933 112.798 46.5303L112.896 46.5273L112.885 46.5056C112.841 46.4213 112.799 46.3361 112.76 46.2503L112.722 46.1642C112.642 45.9756 112.597 45.7082 112.612 45.4832C112.635 45.1331 112.796 44.859 113.144 44.8506ZM96.2066 64.1468C96.0429 64.1153 95.8271 64.1078 95.5792 64.1223L95.5024 64.1272L95.5116 64.1497C95.6506 64.4768 95.9483 64.7777 96.4155 65.0405L96.4995 65.0862L96.5343 65.0837L96.5823 65.0781C96.683 65.0647 96.8127 65.0378 96.9477 65.0017C97.2597 64.9183 97.5438 64.8019 97.6986 64.6887L97.7182 64.6739L97.7517 64.6458L97.7365 64.6329C97.5507 64.4851 97.0723 64.3186 96.2914 64.1634L96.2066 64.1468ZM107.77 53.8234L107.779 53.8353C107.896 53.9979 108.028 54.1565 108.171 54.3063C108.835 55.0011 109.395 55.1788 109.587 54.8542L109.591 54.8477C109.589 54.8478 109.588 54.8469 109.585 54.8449L109.574 54.8311C109.536 54.7778 109.469 54.7147 109.364 54.631L109.304 54.5839L109.137 54.4568L109.068 54.4014C108.69 54.088 108.276 53.903 107.854 53.8353L107.77 53.8234ZM111.042 50.5038L111.062 50.5247C111.434 50.9019 111.931 51.2419 112.504 51.5063C112.916 51.6967 113.295 51.7987 113.497 51.8073L113.52 51.8077L113.508 51.7871C113.44 51.6707 113.309 51.5129 113.116 51.3224L113.067 51.2741C112.682 50.9041 111.965 50.6321 111.145 50.5175L111.042 50.5038ZM114.208 47.2951L114.268 47.3611C114.842 47.9775 115.542 48.4746 116.205 48.7481C116.358 48.8113 116.494 48.8543 116.604 48.8761L116.638 48.8819L116.616 48.848C116.502 48.6728 116.295 48.4421 115.997 48.1657C115.58 47.7793 114.949 47.4761 114.254 47.306L114.208 47.2951Z" fill="#FFB61D"/>
<path fill-rule="evenodd" clip-rule="evenodd" d="M93.2719 20.9998C92.934 21.0734 92.79 21.4618 92.5514 21.7106C92.3128 21.9595 91.7229 21.899 91.8033 21.5646C92.2524 20.6761 92.7081 19.7671 92.8432 18.7819C92.9783 17.7967 92.7369 16.7039 91.9821 16.0511C91.4603 15.5998 90.7627 15.409 90.0815 15.2894C87.4331 14.8246 84.7213 15.2395 82.0417 15.4659C79.362 15.6922 76.544 15.7031 74.134 14.5172C72.496 13.7112 71.5208 11.756 71.8672 9.97266C68.9857 13.4588 67.6894 18.119 68.0256 22.6179C68.1223 23.9115 68.3495 25.2048 68.8265 26.4122C70.0063 29.3982 72.6948 31.6661 75.7461 32.7134C78.7975 33.7608 82.1691 33.6657 85.288 32.8378C88.4069 32.0099 91.2975 30.481 93.9903 28.7118C94.1657 28.5965 94.3933 28.8485 94.3387 29.0503C94.2842 29.252 94.0829 29.3733 93.8987 29.4739C92.3416 30.3242 90.7845 31.1745 89.2275 32.0248C90.1609 32.5119 90.6655 33.5315 91.0621 34.5022C91.5674 35.7391 91.9977 37.0061 92.35 38.2942C94.019 36.9622 95.688 35.6302 97.357 34.2982C97.5308 34.1595 97.8836 34.0911 97.8909 34.3124C96.299 35.6279 94.707 36.9434 93.115 38.2589C92.874 38.4581 92.6078 38.7229 92.6702 39.0282C94.1842 37.7891 95.6983 36.5501 97.2124 35.311C97.6975 34.914 98.2158 34.4616 98.3148 33.8449C98.7585 31.081 99.1876 28.1626 98.1688 25.5531C97.3932 23.5665 95.7784 21.919 93.8003 21.0961C93.6324 21.0263 93.4497 20.961 93.2719 20.9998Z" fill="white"/>
<path fill-rule="evenodd" clip-rule="evenodd" d="M82.4358 45.0997C82.5811 45.1073 82.6925 45.2305 82.6848 45.3749L82.6753 45.5417C82.6322 46.2454 82.5662 46.6958 82.4641 46.9263C82.3619 47.1567 82.5919 47.1535 82.6696 47.135C82.7473 47.1165 83.6137 46.2038 83.715 46.3075C83.8163 46.4112 83.8139 46.5769 83.7095 46.6775L83.5996 46.7827C83.1541 47.2047 82.8656 47.4255 82.6696 47.4722C82.497 47.5133 82.1759 47.6129 82.1351 47.3885C82.057 46.9594 82.3525 46.4943 82.4262 45.916C82.4739 45.5413 82.3565 45.1021 82.4089 45.0996L82.4358 45.0997Z" fill="#00160A"/>
<defs>
<linearGradient id="paint0_linear_1_1556" x1="78.9998" y1="5.93359" x2="78.9998" y2="121.067" gradientUnits="userSpaceOnUse">
<stop stop-color="#F7D8FF"/>
<stop offset="1" stop-color="#3B7069"/>
</linearGradient>
</defs>
</svg>
