<svg width="24" height="25" viewBox="0 0 24 25" fill="none" xmlns="http://www.w3.org/2000/svg">
<g clip-path="url(#clip0_1_705)">
<path d="M17.8568 16.7862C17.8568 18.7524 13.86 20.348 8.92875 20.348C3.99825 20.348 0 18.7524 0 16.7862C0 14.8175 3.99825 13.223 8.92875 13.223C13.86 13.223 17.8568 14.8175 17.8568 16.7862Z" fill="#A6A8AB"/>
<path d="M14.9332 20.8865C19.864 20.8865 23.8612 19.2919 23.8612 17.3248C23.8612 15.3577 19.864 13.763 14.9332 13.763C10.0025 13.763 6.00525 15.3577 6.00525 17.3248C6.00525 19.2919 10.0025 20.8865 14.9332 20.8865Z" fill="#A6A8AB"/>
<path d="M12.2539 19.6663C8.47764 19.6663 5.09139 18.8428 2.79639 17.54C2.77352 17.7159 2.75964 17.8936 2.75964 18.074C2.75964 21.4753 6.94427 24.2326 12.1058 24.2326C17.268 24.2326 21.4526 21.4749 21.4526 18.074C21.4526 17.9443 21.4451 17.8168 21.432 17.6896C19.1479 18.905 15.8805 19.6663 12.2531 19.6663" fill="#D0D2D3"/>
<path d="M7.45013 19.1956C5.64825 18.8259 4.05638 18.2566 2.79713 17.5411C2.77425 17.717 2.76038 17.8948 2.76038 18.0751C2.76038 21.4764 6.945 24.2338 12.1065 24.2338C12.5134 24.2338 12.9131 24.2143 13.3073 24.1813C10.173 23.3683 7.8675 21.4753 7.45013 19.1956Z" fill="#B6B6B7"/>
<path d="M22.545 15.1017C22.545 17.4009 17.871 19.2642 12.1088 19.2642C6.34463 19.2642 1.67175 17.3982 1.67175 15.1017C1.67175 12.8019 6.34463 10.9355 12.1088 10.9355C17.871 10.9355 22.545 12.8004 22.545 15.1017Z" fill="#D0D2D3"/>
<path d="M12.0337 18.5034C16.9647 18.5034 20.9621 16.9082 20.9621 14.9405C20.9621 12.9728 16.9647 11.3776 12.0337 11.3776C7.10272 11.3776 3.10535 12.9728 3.10535 14.9405C3.10535 16.9082 7.10272 18.5034 12.0337 18.5034Z" fill="#A6A8AB"/>
<path d="M5.16002 12.1059C4.51352 12.677 3.8359 13.2061 3.1654 13.7484C2.56877 14.2291 3.33077 15.1126 3.95627 14.7718C4.53977 14.4556 5.11877 14.1455 5.73639 13.9003C5.49077 13.58 5.24402 13.2609 4.99877 12.9406C4.8369 13.203 4.65552 13.4528 4.45615 13.688C4.02677 14.2288 4.57389 15.1434 5.24702 14.7121C5.69252 14.4279 6.13089 14.1436 6.59552 13.8916L5.70339 13.0003C5.54402 13.2665 5.41952 13.5369 5.29239 13.8208C5.05427 14.3473 5.59465 15.1381 6.18452 14.7129C6.66377 14.3686 7.11715 14.0176 7.54802 13.6134C8.12702 13.0738 7.39502 12.3009 6.75789 12.5893C6.7219 12.6283 6.68815 12.6673 6.65365 12.7066C6.57565 13.0048 6.49727 13.3021 6.42002 13.5988C6.67777 13.4357 6.96205 13.3189 7.26002 13.2538C7.90015 13.0685 7.86565 12.1978 7.26002 11.9964C7.20115 11.9765 7.14302 11.9566 7.08452 11.9375V13.1956C7.37552 13.0858 7.65977 13.0213 7.96502 12.9613C7.79665 12.5634 7.62977 12.1651 7.46177 11.7684C6.4039 12.2911 3.05139 13.1281 4.23752 14.9484C4.42427 14.6195 4.61252 14.2936 4.80077 13.9659C4.68264 13.9543 4.56489 13.9426 4.44677 13.9303C3.72002 13.7765 3.31052 14.7155 3.9439 15.1235C4.16515 15.2821 4.39952 15.4198 4.64664 15.5345C4.75689 15.1288 4.86639 14.7238 4.97589 14.318C4.70177 14.3356 4.42914 14.3548 4.15577 14.3769C3.31127 14.441 3.32064 15.6046 4.15577 15.6815C5.01789 15.7599 6.13952 15.9943 6.94464 15.5488C7.20077 15.4055 7.34439 15.2795 7.53565 15.0688C7.67027 14.9199 7.81202 14.7793 7.95602 14.6398C8.61002 14.0086 7.78127 14.825 7.7839 14.3251L8.76602 13.7623C8.6674 13.7038 8.56989 13.6441 8.47202 13.586C8.36177 13.991 8.25302 14.396 8.14202 14.8018C8.36552 14.8899 8.58752 14.9776 8.8099 15.0639L9.13989 13.8481C8.78908 13.8073 8.43471 13.8073 8.08389 13.8481C7.58627 13.904 7.27877 14.3581 7.52027 14.8303C7.9489 15.6661 8.92464 15.9898 9.78902 16.1844C10.6084 16.3719 10.9553 15.1138 10.1359 14.9266C9.62514 14.8108 8.91302 14.687 8.65015 14.1729C8.46114 14.4988 8.27515 14.8261 8.08577 15.1539C8.43665 15.1141 8.79089 15.1141 9.14177 15.1539C9.82764 15.2304 9.9754 14.2554 9.47102 13.9378C9.03302 13.6633 8.6554 13.5541 8.14352 13.4971C7.46814 13.4214 7.2979 14.402 7.81502 14.7118L8.10827 14.8884C8.5369 15.1464 9.08665 14.8145 9.08964 14.3248C9.09715 13.3261 8.38127 12.7843 7.48315 13.3509C7.11115 13.5868 6.80252 13.9363 6.51152 14.2599C6.05852 14.762 4.75727 14.4305 4.15764 14.3765V15.6811C4.4309 15.6604 4.70428 15.6414 4.97777 15.6241C5.58415 15.5833 5.92202 14.7275 5.30777 14.408C5.06096 14.2935 4.82553 14.1559 4.60465 13.997C4.43627 14.3953 4.26864 14.792 4.1029 15.1899C4.33309 15.2398 4.56753 15.2675 4.80302 15.2728C5.28227 15.2833 5.63514 14.7028 5.36552 14.2899C5.20164 14.0371 7.81015 13.0498 8.12327 12.896C8.82302 12.5514 8.30777 11.5674 7.61965 11.7035C7.31627 11.7631 7.03202 11.8291 6.73989 11.9379C6.1384 12.1636 6.10277 12.9834 6.73989 13.196C6.79952 13.2155 6.85727 13.2354 6.91615 13.2538V11.9964C6.49315 12.1209 6.13277 12.2323 5.76302 12.4719C5.49452 12.6474 5.30515 13.0738 5.52939 13.3648C6.0694 14.0679 6.63377 14.0731 7.41939 13.7161C7.1554 13.3756 6.8914 13.0336 6.62852 12.692C6.28169 13.0138 5.91442 13.3128 5.52902 13.5871L6.4219 14.48C6.54977 14.1965 6.6724 13.9254 6.8329 13.6591C7.17827 13.0835 6.5029 12.461 5.93927 12.7663C5.47465 13.019 5.03665 13.304 4.59152 13.5871L5.38089 14.6113C5.64264 14.2805 5.8969 13.9516 6.12902 13.5995C6.42677 13.1476 5.92764 12.4276 5.39139 12.6414C4.66839 12.9301 3.98402 13.2744 3.30039 13.6441C3.56364 13.9869 3.82802 14.3293 4.09202 14.6705C4.76139 14.1298 5.43902 13.5988 6.08514 13.0284C6.71702 12.4711 5.7904 11.5531 5.1619 12.1066" fill="#00A551"/>
<path d="M6.91947 15.6088C7.31772 16.049 7.80147 16.2144 8.37897 16.304C8.43672 15.8769 8.49447 15.4494 8.55297 15.0223C8.42935 15.0177 8.30831 14.9856 8.19859 14.9285C8.13972 15.3564 8.08309 15.7835 8.02534 16.2118C8.82709 16.2121 10.3207 16.3018 10.5705 15.2495C10.8693 13.9914 9.93334 12.9658 8.84397 12.5255L8.66959 13.8069H8.78734C9.55572 13.8069 9.63222 12.7678 8.96059 12.5255C8.57097 12.3845 8.19709 12.2521 7.82809 12.0639C7.71784 12.4681 7.60909 12.8739 7.49809 13.28C7.86334 13.2988 9.33672 13.6711 9.21522 14.2115C9.14509 14.5205 9.26509 14.7691 9.51409 14.9491C10.3282 15.533 11.1315 16.2039 12.1327 16.4221C12.8737 16.5841 13.245 15.6493 12.6356 15.2296C12.5161 15.1481 12.3843 15.0862 12.2452 15.0463V16.304L12.6558 16.1866C13.4625 15.9568 13.1182 14.6964 12.3082 14.9289C12.1721 14.969 12.0348 15.0088 11.8972 15.0463C11.265 15.2274 11.2878 16.1128 11.8972 16.304C11.9242 16.3216 11.9508 16.3393 11.9763 16.3569C12.144 15.9583 12.3123 15.5615 12.4796 15.1636C11.6002 14.9705 10.8881 14.3353 10.1737 13.8226L10.473 14.5599C10.8375 12.9384 8.82522 12.0455 7.49772 11.9743C6.85759 11.9405 6.59434 12.8983 7.16847 13.1908C7.63722 13.4281 8.12172 13.6051 8.61484 13.7836C8.67222 13.3561 8.72959 12.9294 8.78847 12.5011H8.67072C7.88434 12.5011 7.84834 13.5219 8.49747 13.7836C8.77384 13.8954 9.74809 14.7223 9.11622 14.8764C8.77759 14.9596 8.37259 14.9083 8.02647 14.906C7.23484 14.9056 7.21009 15.9223 7.85247 16.1866C8.07897 16.2811 8.31184 16.304 8.55447 16.3276C9.28347 16.4008 9.45259 15.1595 8.72772 15.0463C8.37859 14.9915 8.10109 14.9713 7.84272 14.6874C7.27722 14.0619 6.35659 14.987 6.92097 15.6088" fill="#00A551"/>
<path d="M19.5675 15.1182C19.0073 15.3597 18.4455 15.5937 17.8935 15.8536C17.313 16.1281 17.5871 17.1192 18.2228 17.0701C18.8498 17.0202 19.4516 16.8841 20.07 16.7772L19.4355 15.6886C18.6491 16.382 17.1315 16.2316 16.1494 16.2331C15.4271 16.2339 15.2389 17.3656 15.975 17.5149C16.6489 17.6502 17.2534 17.6382 17.9276 17.5149C18.5498 17.3997 18.5576 16.3636 17.9276 16.2567C16.686 16.0449 15.4691 16.1607 14.2189 16.2237C12.8779 16.2935 11.5331 16.0595 10.1921 16.0325C9.33825 16.0164 9.3705 17.2591 10.1921 17.3371C10.9365 17.408 11.6359 17.4279 12.3728 17.3142C12.9964 17.219 13.0024 16.1446 12.3728 16.0565C10.9991 15.8622 8.84363 15.5127 7.7235 16.5582C7.98675 16.5237 8.25037 16.4907 8.51475 16.4559C7.87012 16.1825 7.29038 15.8585 6.579 15.8326C6.12038 15.8157 5.71537 16.415 6.01612 16.8136C6.14925 16.9929 6.28387 17.1702 6.41587 17.3487C6.71438 17.0514 7.01175 16.7547 7.30875 16.4559C6.33938 15.9294 5.517 15.3271 4.37063 15.3631C3.73688 15.3837 3.45975 16.2511 4.04138 16.5789C6.18225 17.7882 8.7375 18.4374 11.1964 18.4089C12.0401 18.3984 12.0349 17.1354 11.1964 17.1042C10.749 17.0859 10.3043 17.0536 9.8565 17.0367C9.129 17.0082 8.95687 18.1779 9.684 18.3185C11.6595 18.701 13.6091 18.545 15.5854 18.2521C16.3298 18.1411 16.1265 16.9696 15.4125 16.9696H14.8759V18.2742C15.7084 18.272 16.6511 18.3027 17.4064 17.8869C17.6918 17.7301 19.2379 16.1765 19.3654 16.2455C19.6796 16.4139 20.0741 16.3257 20.2583 16.0111C20.4158 15.7415 20.5856 15.485 20.7263 15.2067H19.6013C19.7741 15.4055 19.908 15.6294 20.0025 15.8761C20.3438 15.6125 20.6861 15.3496 21.0274 15.086C20.5774 14.5321 20.061 14.2344 19.4018 13.9812C19.1175 13.8725 18.816 14.0547 18.6641 14.2809C18.5483 14.4234 18.4605 14.5786 18.396 14.75C18.738 14.7061 19.0789 14.6615 19.4201 14.6172C18.9521 14.2085 18.6154 13.7127 18.084 13.3779C17.5489 13.0422 16.8068 13.7281 17.1911 14.27C17.3306 14.4672 17.4608 14.6289 17.6284 14.804C17.8395 14.4414 18.051 14.0772 18.2633 13.7142C17.634 13.5766 17.0629 13.3786 16.4153 13.3569C16.0013 13.3415 15.6615 13.7862 15.786 14.1815C15.8573 14.4335 15.9465 14.6795 16.0534 14.9187L16.5098 14.1147C16.3459 14.1755 16.2248 14.2415 16.089 14.3499C15.8595 14.5332 15.8565 14.9049 15.9863 15.14C16.089 15.3121 16.1783 15.491 16.254 15.6762C16.4993 15.356 16.7464 15.0369 16.9905 14.7174C16.2484 14.5891 15.7264 13.7874 15.183 13.3134C14.6546 12.854 14.0873 12.6399 13.4051 12.5521C12.6551 12.4569 12.5498 13.6362 13.2319 13.8335C14.1285 14.093 15.0184 14.1792 15.9488 14.1916C16.8 14.204 16.776 12.95 15.9488 12.8866C14.6198 12.7854 14.3509 13.5736 13.5465 14.4166L14.6599 14.8779C14.6074 14.3784 15.6263 14.0937 15.9596 13.9779C16.7873 13.6857 17.4574 13.8226 18.2284 14.2366C18.9705 14.6341 19.6286 13.5076 18.8873 13.1079C17.6659 12.4524 16.6388 12.3541 15.3394 12.8127C14.4499 13.1259 13.2379 13.7649 13.3556 14.8756C13.4119 15.4055 14.0411 15.785 14.469 15.3365C14.9558 14.8272 15.1305 14.1264 15.9491 14.1886V12.8836C15.1354 12.8731 14.3632 12.8 13.5791 12.5731L13.4055 13.8549C14.7563 14.0274 15.2768 15.7374 16.6459 15.9729C17.2324 16.0734 17.6295 15.5547 17.3828 15.0132C17.3077 14.8284 17.2183 14.6497 17.1154 14.4789C17.0805 14.7414 17.0468 15.005 17.0134 15.2686C16.9609 15.3024 16.9106 15.3361 16.86 15.3695C17.1626 15.2592 17.4559 14.9161 17.3149 14.567C17.2064 14.3288 17.117 14.0824 17.0475 13.8301C16.8371 14.1046 16.6283 14.381 16.4175 14.6559C16.9373 14.6746 17.4165 14.858 17.9168 14.9667C18.5498 15.1055 19.0178 14.3634 18.5516 13.877C18.474 13.7885 18.3971 13.6977 18.3203 13.607C18.0214 13.9047 17.7248 14.2025 17.4266 14.5002C17.8493 14.7646 18.1264 15.2101 18.4988 15.536C18.7886 15.7887 19.335 15.8097 19.5225 15.404C19.587 15.2337 19.6763 15.077 19.7914 14.9352C19.5461 15.0365 19.2998 15.1351 19.0545 15.2364C19.5154 15.4122 19.7981 15.6275 20.1053 16.004C20.5991 16.6126 21.4346 15.839 21.129 15.2135C21.0353 14.9688 20.8994 14.7425 20.7274 14.5449C20.4608 14.1789 19.8446 14.069 19.6024 14.5449C19.4603 14.8227 19.2926 15.08 19.1344 15.3496C19.431 15.2705 19.7299 15.1936 20.0273 15.1152C19.2975 14.7226 18.717 14.8749 18.141 15.4497C17.7383 15.8491 17.4975 16.2732 17.019 16.6111C16.4145 17.036 15.5813 16.9651 14.8807 16.9666C14.04 16.9681 14.04 18.2712 14.8807 18.2712H15.417L15.2434 16.9902C13.5105 17.2467 11.769 17.3907 10.0361 17.0562C9.97725 17.483 9.91988 17.9109 9.861 18.3372C10.3088 18.3556 10.7531 18.3879 11.2009 18.4059V17.1012C8.97113 17.126 6.6465 16.5462 4.70325 15.4497C4.5945 15.8562 4.48425 16.2609 4.37475 16.6655C5.2635 16.6381 5.913 17.1766 6.65513 17.5809C7.18275 17.8674 7.965 17.2449 7.54725 16.6876C7.41412 16.5084 7.28063 16.3306 7.146 16.1514C6.95775 16.4791 6.771 16.8065 6.58313 17.1331C7.047 17.15 7.4445 17.4035 7.85962 17.5797C8.14162 17.6994 8.41313 17.6979 8.64975 17.4781C9.3135 16.8594 11.2125 17.1969 12.0322 17.3112V16.0535C11.418 16.1457 10.8124 16.0872 10.1978 16.0295V17.3341C11.4053 17.3577 12.6041 17.5126 13.8124 17.5347C15.078 17.5587 16.323 17.2959 17.5849 17.5119V16.2537C17.1716 16.3569 16.7393 16.3569 16.326 16.2537L16.1531 17.5347C17.5489 17.5332 19.251 17.5884 20.3614 16.6074C20.9003 16.1349 20.3111 15.4175 19.7276 15.5176C19.2266 15.602 18.7361 15.722 18.2276 15.7621C18.3368 16.1679 18.4474 16.5714 18.5573 16.9771C19.1081 16.7184 19.6706 16.4829 20.2301 16.2425C21 15.9099 20.334 14.7864 19.5716 15.1175" fill="#F6921E"/>
<path d="M11.325 18.53C12.1482 18.5712 12.9705 18.5712 13.7937 18.53C14.4889 18.4936 14.7293 17.354 13.9677 17.2479C13.0242 17.1166 12.093 17.1736 11.1458 17.1789C11.2032 17.6071 11.262 18.0327 11.3194 18.4606C11.9985 18.3612 12.6394 18.2769 13.2705 17.9911C14.0367 17.6431 13.3722 16.5204 12.612 16.8661C12.1058 17.0949 11.5155 17.1249 10.9722 17.2036C10.23 17.3131 10.4277 18.4906 11.1454 18.4865C11.9663 18.4794 12.8048 18.3935 13.6215 18.5067C13.6785 18.0796 13.7363 17.6529 13.794 17.225C12.9717 17.2674 12.1478 17.2674 11.3254 17.225C10.4835 17.1826 10.488 18.4887 11.3254 18.5315M17.4338 14.7346C16.3695 15.0534 15.3057 15.2442 14.1953 15.2945C13.4974 15.326 13.263 16.4735 14.0217 16.5762C14.2275 16.6066 14.4359 16.6144 14.6434 16.5995C15.3357 16.5526 15.5854 15.4415 14.8185 15.3192C14.7691 15.3107 14.7196 15.3025 14.67 15.2949C14.8215 15.446 14.9749 15.5986 15.1257 15.7516C15.1084 15.9897 15.114 15.992 15.1392 15.7584C15.1284 15.6587 15.1137 15.5595 15.0949 15.461C14.9494 14.6326 13.6939 14.9844 13.8368 15.8067C13.7802 15.4816 13.842 16.0306 13.8683 16.0981C13.983 16.388 14.1649 16.5275 14.4713 16.5766C14.529 16.1491 14.5875 15.7224 14.6438 15.2949C14.552 15.2999 14.4605 15.308 14.3693 15.3192C14.3123 15.7456 14.2542 16.1727 14.1957 16.5995C15.4113 16.5458 16.6156 16.3416 17.781 15.9916C18.585 15.7527 18.2412 14.4927 17.4338 14.7346ZM11.28 12.6954C12.3589 12.6924 13.4359 12.6601 14.5125 12.74C14.4544 12.3129 14.397 11.885 14.3385 11.4586C13.9249 11.558 13.4997 11.5385 13.0755 11.5704C12.3563 11.6232 12.1707 12.6376 12.903 12.8517C13.2758 12.9616 13.6894 12.9931 14.0494 13.1446C14.1008 12.7471 14.151 12.3492 14.2047 11.9525C13.4659 12.2259 12.7223 12.473 11.9607 12.6706C11.5005 12.7899 11.3067 13.4307 11.6727 13.7611C11.8358 13.9085 11.9783 14.054 12.1639 14.177V13.052C12.0739 13.1112 11.9843 13.1712 11.8947 13.2316C11.5692 13.4484 11.4244 13.9681 11.7623 14.2569C11.9558 14.4226 12.1182 14.5921 12.3428 14.7177L12.4988 13.5237C12.3345 13.5942 12.2078 13.6602 12.0762 13.7821C11.7867 14.0476 11.8305 14.6337 12.2078 14.8066C12.3518 14.8719 12.4808 14.9289 12.6345 14.9611C13.455 15.1317 13.8042 13.8747 12.9818 13.7037C12.9428 13.6955 12.9053 13.6872 12.8674 13.6801L12.999 14.7039C12.9488 14.7301 12.8974 14.7567 12.8464 14.7826C13.332 14.5794 13.5469 13.8924 13.002 13.589C12.8775 13.5192 12.7935 13.4247 12.6855 13.3317C12.6405 13.6734 12.5989 14.0146 12.5532 14.3555C12.6435 14.2974 12.7328 14.2374 12.8228 14.1766C13.2409 13.8984 13.2432 13.328 12.8228 13.0479C12.7496 12.975 12.674 12.9044 12.5963 12.8364C12.4992 13.1997 12.4035 13.5631 12.3072 13.9269C13.0688 13.73 13.8147 13.4814 14.5512 13.2076C15.0098 13.0392 15.2847 12.2596 14.7072 12.0162C14.2313 11.8149 13.7419 11.7354 13.2495 11.5906C13.1922 12.0185 13.1329 12.446 13.0752 12.8724C13.6185 12.8334 14.1533 12.8431 14.6862 12.7145C15.4362 12.5345 15.216 11.4849 14.5122 11.4331C13.4355 11.3532 12.3585 11.3847 11.2797 11.3877C10.4389 11.393 10.4393 12.6969 11.28 12.6954ZM15.999 12.851C17.0299 13.1776 17.9993 13.6456 18.9402 14.1774C19.107 13.7799 19.2747 13.382 19.4423 12.9849C19.1764 12.9117 18.915 12.899 18.6409 12.8712C18.3495 12.8405 18.0919 13.0944 18.0113 13.3494C18.1302 12.9665 18.5779 12.9822 18.267 12.9912C18.1005 12.9916 17.9325 12.9744 17.7687 12.9597C17.4758 12.932 17.1844 12.8814 16.8904 12.8712C16.3118 12.8506 16.0392 13.5927 16.4292 13.985C16.7314 14.2899 17.0539 14.3795 17.4732 14.3997C18.3158 14.4444 18.3109 13.1397 17.4732 13.0951C17.4342 13.0835 17.3925 13.073 17.3528 13.0617C17.1983 13.4326 17.0457 13.8039 16.8912 14.1762C17.6063 14.1999 18.9702 14.6596 19.2702 13.6966C19.0605 13.8571 18.8517 14.0165 18.6417 14.1762C18.7947 14.1849 18.9465 14.2077 19.0969 14.2422C19.809 14.4384 20.2482 13.4169 19.5987 13.0494C18.5629 12.4636 17.4825 11.9514 16.3467 11.5921C15.5397 11.3386 15.1984 12.5997 15.999 12.851ZM19.6613 15.26C19.5192 15.4209 19.3707 15.5712 19.2064 15.7089C19.2465 15.6811 19.2342 15.6897 19.17 15.7366C19.1314 15.764 19.0924 15.7895 19.053 15.8157C19.0126 15.8406 18.9716 15.8645 18.93 15.8874C18.9409 15.8799 18.7347 15.9837 18.8277 15.9444C18.4999 16.0812 18.2693 16.3707 18.3713 16.7472C18.4568 17.0562 18.8457 17.3409 19.1742 17.2029C19.7288 16.9707 20.1852 16.6325 20.5857 16.1825C20.8215 15.9166 20.8467 15.5217 20.5857 15.2596C20.3438 15.0207 19.8972 14.9945 19.6613 15.26ZM5.98467 16.8234C6.33005 16.8237 6.67242 16.8702 7.01592 16.9141C7.36992 16.958 7.66767 16.583 7.66767 16.2616C7.66767 15.8712 7.36842 15.6534 7.01592 15.6084C6.67242 15.566 6.33005 15.5221 5.98467 15.5187C5.6273 15.5157 5.33142 15.8187 5.33142 16.1724C5.33142 16.5301 5.6273 16.8204 5.98467 16.8234Z" fill="#A87C4F"/>
<path d="M8.75508 2.48113C6.77096 3.39838 5.94258 5.07125 6.87258 6.9335C7.42758 8.04463 8.30996 9.00163 9.02771 10.0306C9.94346 11.3461 9.92583 12.5495 9.19833 13.9393C8.91483 14.4789 9.82008 14.9518 10.1051 14.4088C11.1333 12.4486 10.9158 10.9048 9.61871 9.11375C8.22521 7.18888 6.05696 4.77613 9.28571 3.28438C9.88758 3.00613 9.35546 2.20288 8.75546 2.48" fill="#E6E7E8"/>
<path d="M12.1968 15.4938C13.1306 14.4502 13.3443 13.3946 12.8677 12.1278C12.3457 10.7418 11.3152 9.61495 11.2983 8.09546C11.2837 6.83733 11.9875 5.61145 12.4773 4.45908C12.9798 3.2752 13.231 2.09058 12.9614 0.83583C12.8362 0.247455 11.8252 0.496455 11.9478 1.08296C12.4297 3.34421 10.6462 5.30883 10.3023 7.48046C10.1429 8.49183 10.3604 9.48108 10.8284 10.407C11.5642 11.8608 12.7878 13.344 11.4528 14.8361C11.0373 15.3015 11.7757 15.9611 12.1968 15.4931" fill="#E6E7E8"/>
<path d="M15.4349 14.0488C15.4225 13.0269 15.2707 12.0931 14.8957 11.126C14.7194 10.6745 14.419 10.2785 14.2555 9.82064C14.0913 9.36201 14.4179 8.81901 14.6545 8.43689C15.4492 7.15664 16.2865 6.15276 15.4327 4.69589C15.1188 4.16264 14.2128 4.63326 14.5225 5.16426C15.3565 6.58514 13.6042 7.73564 13.2408 9.06464C13.0525 9.74939 13.3244 10.3621 13.6604 10.9693C14.2034 11.9555 14.3688 12.9605 14.3812 14.0488C14.3909 14.6484 15.4424 14.6484 15.4349 14.0488Z" fill="#E6E7E8"/>
</g>
<defs>
<clipPath id="clip0_1_705">
<rect width="24" height="24" fill="white" transform="translate(0 0.5)"/>
</clipPath>
</defs>
</svg>
