<svg width="24" height="25" viewBox="0 0 24 25" fill="none" xmlns="http://www.w3.org/2000/svg">
<path d="M22 21.1667C22 22.6333 20.8 23.8333 19.3333 23.8333H4.66667C3.2 23.8333 2 22.6333 2 21.1667V9.83332C2 8.36666 3.2 7.16666 4.66667 7.16666H19.3333C20.8 7.16666 22 8.36666 22 9.83332V21.1667Z" fill="#FDD888"/>
<path d="M24 7.83332C24 9.29999 22.8 10.5 21.3333 10.5H2.66667C1.2 10.5 0 9.29999 0 7.83332C0 6.36666 1.2 5.16666 2.66667 5.16666H21.3333C22.8 5.16666 24 6.36666 24 7.83332Z" fill="#FDD888"/>
<path d="M2 10.5H22V11.8333H2V10.5Z" fill="#FCAB40"/>
<path d="M12.6667 2.5H11.3334C10.8029 2.5 10.2942 2.71071 9.91916 3.08579C9.54409 3.46086 9.33337 3.96957 9.33337 4.5V23.8333H14.6667V4.5C14.6667 3.96957 14.456 3.46086 14.0809 3.08579C13.7058 2.71071 13.1971 2.5 12.6667 2.5Z" fill="#DA2F47"/>
<path d="M10.6666 5.16667C11.4 5.16667 11.5086 4.82267 10.9073 4.402L6.42595 1.26467C6.28845 1.16455 6.13119 1.0949 5.96465 1.06035C5.79811 1.0258 5.62612 1.02715 5.46014 1.06431C5.29417 1.10146 5.13802 1.17357 5.0021 1.27583C4.86619 1.37809 4.75364 1.50815 4.67195 1.65734L3.32795 4.00934C2.96395 4.646 3.26662 5.16667 3.99995 5.16667H10.6666ZM13.3333 5.16667C12.6 5.16667 12.4913 4.82267 13.0926 4.402L17.5746 1.26467C17.7122 1.16466 17.8694 1.0951 18.0359 1.0606C18.2025 1.02611 18.3744 1.02749 18.5404 1.06464C18.7063 1.10179 18.8624 1.17386 18.9983 1.27606C19.1343 1.37826 19.2469 1.50823 19.3286 1.65734L20.6726 4.00867C21.036 4.646 20.7333 5.16667 20 5.16667H13.3333Z" fill="#DA2F47"/>
</svg>
