<svg width="25" height="24" viewBox="0 0 25 24" fill="none" xmlns="http://www.w3.org/2000/svg">
<path d="M21.3249 10.2372H20.6V10.1999H12.5V13.7998H17.5864C16.8443 15.8954 14.8503 17.3998 12.5 17.3998C9.51785 17.3998 7.1 14.9819 7.1 11.9998C7.1 9.01775 9.51785 6.59994 12.5 6.59994C13.8765 6.59994 15.1289 7.11923 16.0824 7.96746L18.6281 5.42186C17.0207 3.92383 14.8706 3 12.5 3C7.52975 3 3.5 7.02968 3.5 11.9998C3.5 16.97 7.52975 20.9997 12.5 20.9997C17.4703 20.9997 21.5 16.97 21.5 11.9998C21.5 11.3964 21.4379 10.8074 21.3249 10.2372Z" fill="#FFC107"/>
<path d="M4.53906 7.81087L7.49601 9.97938C8.29611 7.99851 10.2338 6.59994 12.5014 6.59994C13.8779 6.59994 15.1303 7.11923 16.0838 7.96746L18.6295 5.42186C17.0221 3.92383 14.872 3 12.5014 3C9.04446 3 6.04656 4.95162 4.53906 7.81087Z" fill="#FF3D00"/>
<path d="M12.4966 20.9998C14.8213 20.9998 16.9336 20.1102 18.5307 18.6634L15.7452 16.3064C14.8112 17.0166 13.67 17.4008 12.4966 17.3999C10.1557 17.3999 8.16807 15.9072 7.41927 13.8242L4.48438 16.0854C5.97387 19 8.99878 20.9998 12.4966 20.9998Z" fill="#4CAF50"/>
<path d="M21.325 10.2366H20.6V10.1992H12.5V13.7992H17.5864C17.2314 14.7965 16.592 15.6681 15.7472 16.3061L15.7485 16.3052L18.534 18.6622C18.3369 18.8413 21.5 16.4991 21.5 11.9992C21.5 11.3957 21.4379 10.8067 21.325 10.2366Z" fill="#1976D2"/>
</svg>
