<svg width="18" height="18" viewBox="0 0 18 18" fill="none" xmlns="http://www.w3.org/2000/svg">
<path d="M7.875 4.50017H9V9.00011H7.875V4.50017ZM4.5 6.75014H0V2.2502H1.125V4.65837C1.51758 3.93768 1.99512 3.29022 2.55762 2.71601C3.12012 2.1418 3.74121 1.65548 4.4209 1.25705C5.10059 0.858613 5.83008 0.54807 6.60938 0.325417C7.38867 0.102763 8.18555 -0.00563394 9 0.000225358C9.82617 0.000225358 10.623 0.105693 11.3906 0.316628C12.1582 0.527562 12.876 0.829316 13.5439 1.22189C14.2119 1.61446 14.8184 2.08321 15.3633 2.62812C15.9082 3.17304 16.377 3.7824 16.7695 4.45622C17.1621 5.13004 17.4639 5.84781 17.6748 6.60952C17.8857 7.37123 17.9941 8.16809 18 9.00011H16.875C16.875 8.27942 16.7812 7.58509 16.5938 6.91713C16.4062 6.24917 16.1426 5.62223 15.8027 5.03629C15.4629 4.45037 15.0498 3.91717 14.5635 3.43671C14.0771 2.95624 13.5469 2.54609 12.9727 2.20625C12.3984 1.86641 11.7715 1.59981 11.0918 1.40646C10.4121 1.2131 9.71484 1.11935 9 1.12521C8.24414 1.12521 7.50879 1.23068 6.79395 1.44161C6.0791 1.65255 5.41406 1.9543 4.79883 2.34688C4.18359 2.73945 3.62402 3.21112 3.12012 3.7619C2.61621 4.31267 2.20605 4.93376 1.88965 5.62515H4.5V6.75014ZM9 10.1251H18V11.2501H9V10.1251ZM9 13.5001H18V14.625H9V13.5001ZM9 16.875H18V18H9V16.875ZM1.41504 11.1007C1.62598 11.8565 1.93359 12.5567 2.33789 13.2012C2.74219 13.8458 3.22852 14.4141 3.79688 14.9063C4.36523 15.3985 4.99219 15.8086 5.67773 16.1367C6.36328 16.4649 7.0957 16.6817 7.875 16.7871V17.9297C6.97266 17.8066 6.11719 17.5635 5.30859 17.2002C4.5 16.8369 3.76758 16.374 3.11133 15.8116C2.45508 15.2491 1.88965 14.5928 1.41504 13.8428C0.94043 13.0928 0.580078 12.2784 0.333984 11.3995L1.41504 11.1007Z" fill="black"/>
</svg>
