<svg width="64" height="63" viewBox="0 0 64 63" fill="none" xmlns="http://www.w3.org/2000/svg">
<g filter="url(#filter0_d_1_1445)">
<path fill-rule="evenodd" clip-rule="evenodd" d="M23.8413 0.715365L23.4281 0L22.7037 0.397233L12.6821 5.89295L11.9097 6.31655L12.3654 7.07051L20.4809 20.498H4.84469H4V21.3427V33.1423V33.987H4.84469H20.4975L12.3612 47.7448L11.9114 48.5053L12.6914 48.9204L22.713 54.2545L23.4371 54.6399L23.8435 53.9274L32 39.6317L40.1564 53.9274L40.5629 54.6399L41.287 54.2545L51.3086 48.9204L52.0885 48.5053L51.6388 47.7448L43.5025 33.987H59.1553H60V33.1423V21.3427V20.498H59.1553H43.5191L51.6346 7.07051L52.0903 6.31655L51.3179 5.89295L41.2963 0.397233L40.5719 0L40.1587 0.715365L32 14.8395L23.8413 0.715365ZM31.0245 16.5283L22.7917 2.27574L14.2669 6.95062L22.7013 20.9058L23.4759 22.1874H21.9784H5.68939V32.2976H21.9784H23.4593L22.7055 33.5723L14.2651 47.8442L22.7827 52.3778L31.0275 37.9272L25.124 27.5803L24.8837 27.1591L25.1263 26.7392L31.0245 16.5283ZM32 36.2227L26.8317 27.1643L32 18.217L37.1683 27.1643L32 36.2227ZM32.9725 37.9272L38.8759 27.5803L39.1163 27.1591L38.8737 26.7392L32.9755 16.5283L41.2083 2.27574L49.7331 6.95062L41.2987 20.9058L40.5241 22.1874H42.0216H58.3106V32.2976H42.0216H40.5407L41.2945 33.5723L49.7349 47.8442L41.2173 52.3778L32.9725 37.9272Z" fill="#FFFFFE"/>
</g>
<defs>
<filter id="filter0_d_1_1445" x="0" y="0" width="64" height="62.6399" filterUnits="userSpaceOnUse" color-interpolation-filters="sRGB">
<feFlood flood-opacity="0" result="BackgroundImageFix"/>
<feColorMatrix in="SourceAlpha" type="matrix" values="0 0 0 0 0 0 0 0 0 0 0 0 0 0 0 0 0 0 127 0" result="hardAlpha"/>
<feOffset dy="4"/>
<feGaussianBlur stdDeviation="2"/>
<feComposite in2="hardAlpha" operator="out"/>
<feColorMatrix type="matrix" values="0 0 0 0 0 0 0 0 0 0 0 0 0 0 0 0 0 0 0.25 0"/>
<feBlend mode="normal" in2="BackgroundImageFix" result="effect1_dropShadow_1_1445"/>
<feBlend mode="normal" in="SourceGraphic" in2="effect1_dropShadow_1_1445" result="shape"/>
</filter>
</defs>
</svg>
