<svg width="158" height="132" viewBox="0 0 158 132" fill="none" xmlns="http://www.w3.org/2000/svg">
<rect width="158" height="132" fill="#FCFCFA"/>
<path fill-rule="evenodd" clip-rule="evenodd" d="M152.297 50.0128C150.476 63.5851 148.421 70.7542 136.428 84.9676C124.435 99.181 69.5541 108.531 49.2646 108.531C28.975 108.531 3.97054 92.8859 5.54864 74.7582C7.12675 56.6305 15.36 41.8142 35.0666 39.9903C55.2057 38.1263 72.8961 46.758 92.668 42.1286C109.762 38.1263 114.992 22.8709 126.732 18.0579C150.476 8.32394 153.535 40.7796 152.297 50.0128Z" fill="url(#paint0_linear_1_1569)"/>
<path d="M140.081 56.6418C139.41 57.7788 130.918 63.5322 125.767 64.3837C124.77 64.5485 123.682 64.6051 122.816 64.0846C122.305 63.7771 121.923 63.2976 121.561 62.8232C120.734 61.7385 119.944 60.6248 119.194 59.4847C118.8 58.8856 118.409 58.2602 118.276 57.5558C117.921 55.6904 119.425 54.0149 120.911 52.833C124.327 50.1161 128.326 48.1368 132.559 47.069C133.308 46.88 134.102 46.7199 134.844 46.9346C136.049 47.2831 136.769 48.502 137.229 49.6687C137.688 50.8354 138.047 52.1115 138.965 52.965C139.175 53.1599 140.752 55.5047 140.081 56.6418Z" fill="#FCFCFA"/>
<path fill-rule="evenodd" clip-rule="evenodd" d="M94.4507 106.209C86.209 107.618 90.1371 101.628 91.2737 94.1307C93.1413 81.8112 95.4443 63.0896 95.4443 63.0896C95.4443 63.0896 96.9461 91.6168 96.9461 98.563C96.9461 105.509 95.4441 106.039 94.4507 106.209Z" fill="#FCFCFA"/>
<path d="M85.6445 99.4216C85.8549 101.405 86.0766 103.431 86.9197 105.239C86.4597 101.145 85.9998 97.0508 85.5398 92.9566C85.483 92.451 85.4998 91.8075 85.965 91.6012C86.3585 96.2244 86.9453 100.831 87.7232 105.405C87.8156 105.948 86.9999 106.259 86.5418 105.953C86.0836 105.647 85.9371 105.051 85.8329 104.51C85.0738 100.569 84.6564 96.5614 84.587 92.5479C83.6206 92.7383 82.9428 93.6752 82.7473 94.6407C82.5518 95.6061 82.7402 96.6031 82.9285 97.57C83.5346 100.682 84.1407 103.794 84.7469 106.907C85.0304 108.362 85.3138 109.866 85.001 111.316C83.7981 105.824 82.8309 100.28 82.1033 94.7049C72.8732 100.349 60.9799 101.399 50.904 97.4583C48.7033 96.5977 46.5178 95.4573 45.0643 93.5943C43.9193 92.1267 43.3084 90.3046 42.9883 88.4709C41.8515 81.9586 44.181 75.3159 47.3429 69.5103C48.5426 67.3074 49.909 65.0131 49.8122 62.5066C49.7788 61.6436 49.5927 60.6881 50.0967 59.9868C50.168 60.1166 46.7977 36.0079 48.1497 30.6752C51.4046 17.837 61.9783 16.0983 68.7483 16.2566C73.2907 16.3629 102.083 22.085 106.243 29.8663C111.711 40.0933 110.55 48.6915 109.579 54.361C109.29 56.0493 95.4481 62.9653 95.4443 63.0003C94.653 70.3568 89.3424 86.3865 84.8887 92.2949C85.1406 94.6705 85.3926 97.0461 85.6445 99.4216Z" fill="#FCFCFA"/>
<path fill-rule="evenodd" clip-rule="evenodd" d="M19.184 69.4879C16.5882 68.4517 13.4947 68.759 11.1544 70.2856C10.9278 70.4334 10.602 70.2686 10.4899 70.0228C10.3777 69.7769 10.4197 69.4908 10.4771 69.2268C11.2245 65.7871 14.2021 63.1551 17.5136 61.9456C20.825 60.7361 24.4471 60.7327 27.9671 60.9395C28.3164 60.96 28.6815 60.9873 28.9794 61.1704C29.2773 61.3535 29.4778 61.745 29.3293 62.0612C27.9446 65.0098 26.9015 68.1181 26.2275 71.3044C26.1182 71.821 25.5828 72.1638 25.0555 72.2069C24.5283 72.25 24.0117 72.0554 23.5332 71.8302C22.0419 71.1283 20.7149 70.099 19.184 69.4879Z" fill="#FCFCFA"/>
<path fill-rule="evenodd" clip-rule="evenodd" d="M98.9732 17.5621C99.1021 15.5889 98.9534 13.5978 98.5327 11.6657L98.5237 11.6245C98.4523 11.2978 98.3789 10.9617 98.4447 10.6348C98.5902 9.91166 99.3933 9.47641 100.131 9.4916C100.868 9.50678 101.551 9.8588 102.204 10.2026C105.334 11.8512 108.52 13.5415 110.984 16.0794C111.061 18.1339 110.577 20.1615 110.099 22.163L110.099 22.1631L110.054 22.3512C108.058 30.717 106.424 39.169 105.158 47.6758C105.036 48.4911 104.806 49.4529 104.033 49.7385C103.478 49.9433 102.833 49.6816 102.439 49.2407C102.045 48.7998 101.856 48.2144 101.725 47.6378C101.401 46.2153 101.362 44.7284 101.611 43.2908C101.763 42.4117 102.021 41.5566 102.278 40.7012L102.279 40.7011C102.51 39.9332 102.741 39.1652 102.896 38.3794C103.052 37.5936 103.13 36.7949 103.206 35.9976C103.61 31.7575 103.953 27.5115 104.234 23.2615C104.273 22.661 104.31 22.0415 104.113 21.4727C103.763 20.461 102.744 19.8215 101.714 19.5283C101.537 19.4778 101.356 19.4348 101.176 19.3918C100.757 19.2918 100.337 19.1919 99.9548 18.9969C99.4078 18.7182 98.9332 18.1748 98.9732 17.5621ZM100.885 17.3999C102.341 17.707 103.763 18.1708 105.12 18.7806C105.393 18.9033 105.68 19.0471 105.828 19.3076C105.948 19.5205 105.955 19.7768 105.959 20.0214C106.001 22.8939 106.01 25.774 105.706 28.6307C105.524 30.3412 105.23 32.0368 104.937 33.7323C104.844 34.269 104.751 34.8057 104.661 35.3428C104.218 38.0006 103.862 40.6728 103.593 43.3538C103.398 45.299 103.255 47.3096 103.86 49.1686C104.17 49.1119 104.29 48.738 104.349 48.4279L109.941 18.9541C110.076 18.2399 110.211 17.5016 110.052 16.7925C109.772 15.551 108.67 14.6878 107.608 13.9874C105.563 12.639 103.386 11.4906 101.118 10.5639C100.929 12.837 100.852 15.1193 100.885 17.3999ZM103.761 36.757C104.785 31.5007 105.247 26.1353 105.138 20.7814C105.13 20.377 105.108 19.9425 104.861 19.6224C104.68 19.3879 104.403 19.2506 104.132 19.1294C103.117 18.6744 102.049 18.3359 100.956 18.1225C100.64 18.0607 100.175 18.1276 100.189 18.4495L104.116 20.072C104.346 20.1672 104.591 20.2748 104.721 20.4873C104.849 20.6957 104.837 20.9575 104.82 21.2014L103.761 36.757ZM100.107 10.0439C99.7837 9.82935 99.316 10.0506 99.1357 10.3945C98.9554 10.7385 98.9828 11.1502 99.0237 11.5364C99.0835 12.1023 99.1624 12.6684 99.2412 13.2346L99.2412 13.2349L99.2413 13.2353L99.2413 13.2356L99.2414 13.236L99.2414 13.2363L99.2415 13.2367L99.2415 13.237C99.4606 14.8101 99.6797 16.3838 99.4935 17.9537C99.7905 18.0556 100.122 17.8463 100.266 17.5674C100.41 17.2884 100.414 16.9607 100.414 16.6468L100.424 10.9858C100.425 10.6398 100.396 10.2351 100.107 10.0439ZM103.015 49.0409C102.836 47.6419 102.79 46.2262 102.875 44.8184C102.921 44.0658 103.005 43.3159 103.088 42.5661L103.088 42.5657C103.199 41.574 103.309 40.5825 103.332 39.5854C102.517 42.0126 102.209 44.609 102.434 47.1596C102.492 47.8231 102.601 48.5188 103.015 49.0409ZM103.463 38.1516C103.595 38.0928 103.65 37.9085 103.572 37.7873C103.439 37.853 103.383 38.039 103.457 38.1678L103.463 38.1516ZM102.244 25.9953C95.7543 21.993 88.4161 19.595 81.0775 17.5258C78.7316 16.8644 76.3661 16.2305 73.9438 15.9592C66.7667 15.1551 59.4907 17.6314 53.5229 21.6988C51.1295 23.33 48.8203 25.3366 47.7863 28.0421C47.019 30.0495 47.0243 32.2595 47.0983 34.4073C47.3535 41.8147 48.304 49.1785 49.2533 56.5292C49.9956 56.3953 50.0689 55.3688 49.9614 54.6223C48.9742 47.7672 48.4207 40.8496 48.3053 33.9248C48.273 31.983 48.2831 29.9922 48.9551 28.1701C50.1716 24.8717 53.309 22.7145 56.3876 21.0169C60.2651 18.8786 64.4802 17.0812 68.9072 16.9858C74.2696 16.8702 79.3525 19.2489 84.037 21.8613C86.6486 23.3178 89.2965 24.9442 90.958 27.4304C92.4665 29.688 93.0147 32.4393 93.4105 35.1255C94.6668 43.6511 94.7129 52.3029 94.7565 60.9204C94.7582 61.269 94.7369 61.6686 94.4638 61.8853C94.2771 62.0334 94.0221 62.0519 93.7841 62.0643L85.0354 62.5197C89.1121 63.6918 93.6345 63.2295 97.3897 61.2568L107.111 56.1501C108.018 55.6735 108.954 55.1728 109.58 54.3609C110.44 53.2435 110.563 51.7403 110.604 50.3304C110.754 45.1235 110.233 39.8976 109.059 34.8226C109.466 40.3125 109.523 45.8284 109.228 51.3255C109.178 52.2643 109.102 53.2492 108.592 54.0386C108.047 54.8818 107.099 55.3594 106.196 55.7983L95.7048 60.8972C96.1389 52.746 95.8022 44.554 94.7005 36.466C94.3299 33.7456 93.8572 30.9873 92.6123 28.5403C89.6703 22.7575 83.1585 19.897 77.1401 17.4731C86.1379 20.1055 95.2384 22.7814 103.333 27.5104C103.438 26.8571 102.807 26.3427 102.244 25.9953ZM135.771 50.8769C136.237 52.0791 136.893 53.3604 138.098 53.8186C138.384 53.8407 138.554 53.4621 138.461 53.1915C138.382 52.9655 138.198 52.8008 138.018 52.6392C137.982 52.6073 137.947 52.5755 137.912 52.5434C137.145 51.8308 136.768 50.8236 136.398 49.8315C136.324 49.6353 136.251 49.4397 136.175 49.247C135.716 48.0804 134.995 46.8615 133.791 46.513C133.049 46.2983 132.254 46.4584 131.505 46.6474C127.273 47.7152 123.273 49.6944 119.857 52.4114C118.371 53.5933 116.868 55.2688 117.222 57.1341C117.356 57.8386 117.747 58.464 118.141 59.0631C118.89 60.2032 119.68 61.3169 120.508 62.4016C120.87 62.876 121.251 63.3555 121.763 63.6629C122.629 64.1834 123.717 64.1268 124.714 63.9621C129.865 63.1106 134.274 59.9093 138.469 56.8013C138.688 56.6395 138.915 56.4672 139.028 56.2201C139.141 55.9731 139.093 55.6294 138.853 55.5019C138.578 55.3556 138.253 55.5575 138.008 55.7496C134.104 58.8061 129.934 61.7928 125.093 62.8666C124.175 63.0701 123.164 63.19 122.338 62.7407C121.721 62.4045 121.304 61.8001 120.91 61.2175L118.468 57.6044C118.262 57.3001 118.049 56.973 118.041 56.6058C118.034 56.2385 118.331 55.8413 118.695 55.8887C122.118 56.3339 125.557 56.6539 129.003 56.8478C129.277 56.8632 129.564 56.8757 129.814 56.7615C130.136 56.6144 130.333 56.2888 130.504 55.9792C131.963 53.3491 133.078 50.5281 133.81 47.611C134.784 48.3092 135.238 49.492 135.672 50.6205C135.705 50.7063 135.738 50.7919 135.771 50.8769ZM132.758 47.3801C132.106 49.8197 131.142 52.1756 129.895 54.3719C129.686 54.7401 129.454 55.1193 129.089 55.3332C128.624 55.6054 128.046 55.5541 127.511 55.4943L118.985 54.5429C120.399 52.6736 122.501 51.4605 124.6 50.418C126.588 49.4313 128.628 48.5511 130.71 47.7825C131.369 47.5392 132.06 47.3034 132.758 47.3801ZM85.645 99.4212C85.8554 101.405 86.0771 103.431 86.9202 105.239L85.5403 92.9561C85.4835 92.4505 85.5003 91.807 85.9654 91.6008C86.359 96.2239 86.9458 100.831 87.7237 105.405C87.8161 105.948 87.0004 106.258 86.5423 105.952C86.0841 105.646 85.9376 105.051 85.8334 104.51C85.0743 100.568 84.6569 96.5609 84.5875 92.5474C83.6211 92.7378 82.9433 93.6748 82.7478 94.6402C82.5523 95.6056 82.7407 96.6027 82.929 97.5695L84.7474 106.906C85.0308 108.362 85.3143 109.866 85.0015 111.315C83.7986 105.823 82.8314 100.28 82.1037 94.7044C72.8737 100.349 60.9804 101.398 50.9045 97.4578C48.7038 96.5972 46.5183 95.4568 45.0648 93.5938C43.9198 92.1262 43.3088 90.3041 42.9888 88.4705C41.852 81.9582 44.1815 75.3154 47.3434 69.5098C47.4258 69.3586 47.5089 69.2069 47.5923 69.0548C48.7238 66.9909 49.9028 64.8405 49.8126 62.5061C49.8067 62.3519 49.7959 62.1947 49.785 62.0365L49.7849 62.0365C49.7348 61.3097 49.6833 60.5623 50.0972 59.9863C50.6523 60.9962 50.8637 62.191 50.6888 63.3301C60.2444 62.9188 69.8141 62.836 79.3755 63.0818C79.487 63.5214 78.8501 63.7256 78.3967 63.7188C69.4739 63.5857 60.5468 63.7377 51.6337 64.1745C51.3514 64.1884 51.0552 64.2067 50.8158 64.357C50.5641 64.5151 50.4175 64.7925 50.2822 65.0572C47.7525 70.0068 45.2146 75.0285 43.9918 80.4509C43.363 83.2394 43.1222 86.2912 44.411 88.8428C44.8999 89.8107 45.5913 90.6655 46.3634 91.4271C50.5081 95.5153 56.7145 96.7686 62.5354 96.6708C66.2504 96.6084 69.9573 96.0743 73.5389 95.0855C77.3359 94.0373 81.1228 92.385 83.7145 89.4186C85.2365 87.6767 86.2709 85.5671 87.1768 83.4387C88.9066 79.3747 90.2334 75.1392 91.1314 70.8146C91.6937 70.933 91.7016 71.7281 91.5718 72.2879C89.9664 79.2137 88.1004 86.5961 82.8127 91.3483C78.0369 95.6405 71.3072 96.9716 64.8961 97.3306C61.1928 97.538 57.4312 97.4732 53.8442 96.5291C50.2573 95.5851 46.8324 93.6966 44.5552 90.7688C45.2194 93.3011 47.4691 95.1084 49.8113 96.278C55.961 99.3489 63.2231 99.1865 70.0135 98.1191C74.5368 97.408 79.1797 96.241 82.7 93.3128C85.709 90.8099 87.6266 87.2352 89.07 83.5971C90.6677 79.5701 91.776 75.3491 92.3628 71.0567C92.7283 70.8258 92.999 71.4715 92.9528 71.9013C92.1615 79.2579 89.3429 86.3861 84.8892 92.2945L85.645 99.4212ZM81.3682 112.001C80.9759 111.339 80.7233 110.594 80.6316 109.829L80.0679 111.74L78.6451 106.314C78.5347 105.893 78.2661 105.366 77.8405 105.456C77.4267 105.544 77.3802 106.112 77.4419 106.531C77.7518 108.636 78.343 110.699 79.1947 112.649L77.6817 111.321C77.6081 111.953 77.7744 112.61 78.1399 113.131C77.3519 112.551 76.2947 112.353 75.3501 112.609C76.0251 113.547 76.9416 114.31 77.9866 114.803L76.7081 113.018C77.7415 113.615 78.8242 114.126 79.9415 114.545L78.8583 113.187L80.1968 113.558C79.1726 111.228 78.1292 108.809 78.154 106.264C78.5416 108.334 79.1092 110.371 79.848 112.343C79.9732 112.678 80.1123 113.023 80.379 113.26C80.6458 113.498 81.0792 113.587 81.3587 113.365C81.5759 113.192 81.6393 112.894 81.6885 112.621L82.2913 109.278L82.9536 113.424C83.4556 112.156 85.0883 111.838 86.4521 111.83C88.2532 111.819 90.0676 112.017 91.8774 112.215C95.1397 112.572 98.3868 112.927 101.513 112.049C101.421 112.533 101.26 113.003 101.037 113.441C103.559 113.074 106.112 112.913 108.66 112.96C109.736 112.98 110.815 113.036 111.895 113.093H111.895H111.895H111.895H111.895H111.895H111.896H111.896H111.896C114.75 113.243 117.603 113.393 120.4 112.863L101.842 112.7C102.191 112.679 102.458 112.274 102.339 111.946C102.22 111.618 101.755 111.477 101.475 111.684C101.292 111.104 100.472 110.846 99.9899 111.217C100.269 110.356 100.822 109.586 101.548 109.045C100.728 109.001 99.896 109.252 99.2374 109.742L101.233 100.503C101.065 100.358 100.783 100.456 100.659 100.64C100.535 100.823 100.521 101.055 100.508 101.275L100.508 101.282C100.321 104.437 99.2087 107.531 97.3443 110.082L96.6122 107.964L95.5628 110.494C95.0873 110.126 94.4127 110.033 93.8552 110.259C93.9976 110.8 94.4304 111.255 94.9635 111.424L95.2118 110.759L96.8511 111.857C96.2246 111.201 96.0888 110.126 96.5323 109.335L97.5242 110.999L99.447 107.196C99.4579 108.723 98.8034 110.166 98.162 111.551C98.8592 111.005 99.4585 110.335 99.923 109.581C100.371 110.375 99.8816 111.439 99.1018 111.912C98.3221 112.385 97.3577 112.41 96.4468 112.372C95.0568 112.313 93.6562 112.138 92.2573 111.964C89.1159 111.572 85.9832 111.182 82.9991 112.107L82.5688 108.139C81.9115 109.327 81.5002 110.65 81.3682 112.001ZM100.091 112.107C100.024 112.026 100.024 111.897 100.092 111.817L100.146 111.837C100.238 111.619 100.621 111.637 100.691 111.863C100.514 111.99 100.307 112.075 100.091 112.107ZM110.23 69.9523C108.068 68.8598 105.496 69.1547 103.097 69.4835C102.419 69.5764 101.728 69.6739 101.114 69.9758C100.5 70.2776 99.9652 70.8243 99.8593 71.5003C93.9999 70.7687 88.385 68.1896 84.0123 64.2214C83.0633 63.3601 82.0948 62.1338 82.5217 60.9253C82.6558 60.5455 82.9169 60.225 83.1883 59.9274C85.227 57.6922 88.0377 56.3479 90.774 55.0576C87.6728 55.3296 84.6972 56.838 82.6446 59.1786C82.1742 59.715 81.7405 60.3143 81.5785 61.0091C81.1785 62.7248 82.5111 64.3343 83.8447 65.4853C88.1001 69.158 93.4525 71.543 99.0288 72.2512C99.3632 72.2937 99.3804 72.7639 99.3499 73.0996C99.214 74.5928 100.028 76.05 101.156 77.0376C102.284 78.0252 103.697 78.6183 105.099 79.1495C109.442 80.7942 113.948 82.0056 118.53 82.7597C118.832 82.8095 119.248 82.7859 119.312 82.4859C118.255 81.7864 116.982 81.5199 115.738 81.2594L115.536 81.2171C112.382 80.553 109.269 79.688 106.224 78.6291C104.975 78.1946 103.723 77.7203 102.633 76.97C101.544 76.2197 100.619 75.1599 100.271 73.8839C100.099 73.2539 100.332 72.3134 100.98 72.3927C103.62 72.7154 106.332 73.0342 108.91 72.3795C109.493 72.2313 110.101 72.0078 110.457 71.5222C110.812 71.0367 110.767 70.2237 110.23 69.9523ZM103.571 71.6963C102.665 71.5403 101.739 71.4985 100.823 71.5723C101.268 70.7263 102.356 70.5036 103.303 70.3747C105.362 70.0943 107.506 69.8209 109.478 70.4736C109.609 70.5168 109.748 70.5718 109.818 70.6896C109.911 70.8446 109.843 71.0556 109.711 71.1792C109.58 71.3027 109.4 71.3588 109.226 71.4074C107.393 71.9196 105.446 72.0191 103.571 71.6963ZM73.5865 114.373C75.1029 114.33 76.6285 114.666 77.9874 115.34C77.6242 115.862 76.8941 115.935 76.2586 115.959L59.6475 116.589C59.4953 116.571 59.4666 116.336 59.5745 116.226C59.6823 116.117 59.8509 116.103 60.0041 116.096L76.2197 115.305C75.2828 115.219 74.3687 114.895 73.5865 114.373ZM41.6192 59.4367C41.3825 60.5687 42.3403 61.7765 43.4936 61.8622C41.6076 64.7046 38.2101 66.1073 34.9458 67.0976C32.9084 67.7156 30.6484 68.2231 28.7062 67.351C28.4651 67.4983 28.7222 67.861 28.9767 67.9836C30.8668 68.8944 33.1077 68.3869 35.1181 67.7869C38.0665 66.907 41.1057 65.7698 43.1119 63.4369C43.1937 63.3418 43.2753 63.2438 43.3573 63.1452L43.3583 63.144L43.3584 63.1439C43.8747 62.5233 44.4132 61.8762 45.1895 61.7326C47.689 61.2703 49.7708 59.7048 51.8279 58.1579C52.2944 57.807 52.7597 57.4571 53.2284 57.1212C56.0765 55.0799 59.2354 53.473 62.5624 52.3732C62.8562 52.276 63.2136 52.0957 63.1875 51.7873C59.0626 52.166 55.457 54.6258 52.1325 57.0967L52.0216 57.1791C49.7621 58.8588 47.4011 60.6141 44.621 61.0304C45.5291 60.3142 45.3374 58.6591 44.3128 58.1226C43.2882 57.586 41.8559 58.3046 41.6192 59.4367ZM42.3888 60.1282C42.2034 59.579 42.4895 58.9257 42.9981 58.6476C43.1424 58.5686 43.3039 58.516 43.4685 58.5159C44.0115 58.5153 44.4082 59.0962 44.4117 59.6392C44.4153 60.1823 44.14 60.6832 43.8724 61.1558C43.2466 61.06 42.5913 60.7281 42.3888 60.1282ZM104.112 48.0274C103.959 47.8562 104.006 47.6256 104.055 47.3868C104.09 47.218 104.125 47.0451 104.091 46.8861C104.061 46.7483 103.981 46.6309 103.9 46.5131C103.829 46.4089 103.757 46.3044 103.721 46.1852C103.729 46.0276 103.94 45.9467 104.083 46.0121C104.227 46.0775 104.307 46.2317 104.358 46.3813C104.54 46.9273 104.447 47.5584 104.112 48.0274ZM90.2071 36.046C90.5915 35.1347 91.3535 34.3267 92.325 34.1417C92.6394 34.0818 92.6296 33.5635 92.3541 33.4006C92.0787 33.2376 91.7249 33.3339 91.4359 33.4715C90.0899 34.1122 89.24 35.5225 88.9071 36.9755C88.5741 38.4285 88.6842 39.9418 88.7962 41.4283L89.3913 49.3297C89.4116 49.5984 89.4362 49.8804 89.5858 50.1045C89.8905 50.5609 90.5439 50.5752 91.0915 50.5404L93.8635 50.3643C93.2474 49.8816 92.4206 49.6784 91.6509 49.8205C91.2015 49.9035 90.75 49.607 90.5118 49.2169C90.2736 48.8268 90.2039 48.3599 90.1448 47.9067C89.7585 44.9413 89.6167 41.9441 89.7215 38.9555C89.7562 37.9671 89.8228 36.9572 90.2071 36.046ZM97.2848 106.181C97.1274 106.295 96.9695 106.035 96.9466 105.842C95.8754 96.8373 95.7139 87.7525 95.5535 78.686L95.4454 72.5738C95.4423 72.3997 95.4448 72.2089 95.5567 72.0755C95.7493 71.8459 96.1545 71.9512 96.3227 72.1993C96.491 72.4473 96.4912 72.7686 96.4857 73.0683C96.3207 81.9902 96.429 90.9295 97.2832 99.812L97.3146 100.136V100.136C97.5105 102.154 97.7093 104.202 97.2848 106.181ZM88.3789 49.4221C88.1443 49.2933 87.8548 49.3662 87.5981 49.4422C75.7224 52.9546 63.8738 56.5763 52.1997 60.7099C51.9812 60.7873 51.7313 60.8988 51.6811 61.1251C51.6281 61.3648 51.8537 61.5938 52.0951 61.6382C52.3366 61.6827 52.5808 61.5963 52.8112 61.5116C64.5105 57.2078 76.3859 53.3827 88.3978 50.0491C88.6557 49.9775 88.6136 49.551 88.3789 49.4221Z" fill="#1E1C1C"/>
<path fill-rule="evenodd" clip-rule="evenodd" d="M130.691 103.151C130.414 103.272 130.115 103.385 129.817 103.334C129.52 103.283 129.241 103.003 129.301 102.707C129.848 100.001 129.161 97.0701 127.47 94.8876C126.877 94.1227 126.172 93.4497 125.594 92.6733C125.23 92.1841 124.907 91.5689 125.091 90.9877C125.354 90.1608 126.411 89.9596 127.277 89.9006C129.289 89.7635 131.302 89.6263 133.314 89.4891C134.241 89.4259 135.309 89.4166 135.928 90.1098C137.651 92.0398 141.01 92.1694 142.876 90.378C143.165 90.1008 143.529 90.6526 143.517 91.0528C143.481 92.3111 142.963 93.5496 142.091 94.4582C141.886 94.6725 141.623 94.8825 141.328 94.8517C141.032 94.821 140.814 94.3969 141.05 94.2159C141.555 93.8278 142.07 93.4299 142.424 92.9003C142.778 92.3708 142.95 91.6765 142.709 91.0869C141.409 92.7314 140.096 94.3661 138.772 95.9907C136.475 98.8076 134.019 101.689 130.691 103.151ZM134.321 94.862C133.99 94.9534 133.637 94.8832 133.307 94.7899C130.932 94.1188 128.744 92.263 126.314 92.6974C129.147 94.9789 130.652 98.8045 130.131 102.405C131.998 102.005 133.472 100.611 134.794 99.2344C136.751 97.1962 138.609 95.0633 140.359 92.8454C139.101 92.8351 137.847 92.4721 136.778 91.8086C135.458 92.1354 135.632 94.4993 134.321 94.862ZM136.046 91.1139C135.259 90.1863 133.845 90.215 132.633 90.3214C131.053 90.4602 129.472 90.5991 127.892 90.7379C127.25 90.7942 126.513 90.9068 126.179 91.4573C128.914 92.0299 131.581 92.9293 134.104 94.1303C134.429 93.1109 135.079 92.198 135.937 91.5584C136.033 91.4865 136.144 91.3941 136.131 91.2745C136.124 91.2133 136.085 91.1609 136.046 91.1139V91.1139Z" fill="#FFB61D"/>
<path fill-rule="evenodd" clip-rule="evenodd" d="M18.8779 68.9952C16.4975 68.0432 13.6608 68.3256 11.5147 69.728C11.307 69.8638 11.0083 69.7124 10.9054 69.4865C10.8026 69.2607 10.841 68.9979 10.8937 68.7553C11.5791 65.5954 14.3095 63.1775 17.346 62.0664C20.3826 60.9553 23.704 60.9521 26.9319 61.1421C27.2521 61.1609 27.5869 61.186 27.8601 61.3542C28.1333 61.5224 28.3171 61.8821 28.1809 62.1726C26.9112 64.8814 25.9547 67.7368 25.3366 70.6639C25.2364 71.1385 24.7455 71.4534 24.262 71.493C23.7785 71.5326 23.3047 71.3539 22.866 71.147C21.4985 70.5022 20.2816 69.5566 18.8779 68.9952ZM19.15 65.7978C18.9378 65.9702 18.6062 65.8792 18.4066 65.6924C18.207 65.5057 18.0933 65.2473 17.9364 65.0235C17.0947 63.8229 15.1633 63.9225 14.0185 64.8385C12.8736 65.7546 12.3196 67.202 11.8152 68.5787C15.1739 67.1198 19.3106 67.6433 22.2 69.8929C22.5945 70.2001 22.9859 70.5462 23.4717 70.6644C23.9575 70.7826 24.5695 70.5702 24.6925 70.0856C25.3499 67.4968 26.1599 64.9468 27.117 62.4532C25.2805 64.7359 21.4238 63.9505 19.15 65.7978ZM18.4191 64.4183C18.6077 64.6553 18.9502 64.7182 19.2483 64.6647C19.5464 64.6112 19.8172 64.4627 20.095 64.342C21.0513 63.9264 22.1105 63.8336 23.1357 63.6435C24.161 63.4534 25.2184 63.1318 25.9402 62.3792C24.3118 62.3743 22.6833 62.3694 21.0549 62.3645C19.4184 62.3596 17.6548 62.3942 16.3401 63.3688C17.1405 63.398 17.9204 63.7917 18.4191 64.4183Z" fill="#FFB61D"/>
<path fill-rule="evenodd" clip-rule="evenodd" d="M95.3537 68.7773C95.3499 67.3449 95.346 65.9125 95.3422 64.4801C95.3411 64.0688 95.34 63.6575 95.3389 63.2461C95.3381 62.9625 95.3857 62.6075 95.6553 62.5193C95.8592 62.4526 96.0836 62.5991 96.1789 62.7913C96.2743 62.9835 96.2731 63.2075 96.27 63.422C96.2402 65.4209 96.2105 67.4197 96.1807 69.4186C96.1764 69.7061 96.1283 70.0598 95.8591 70.1606C95.4102 69.9064 95.3551 69.2931 95.3537 68.7773H95.3537Z" fill="#1E1C1C"/>
<path fill-rule="evenodd" clip-rule="evenodd" d="M92.4944 67.4512C92.2871 67.5422 92.1801 67.2006 92.2121 66.9765C92.3268 66.1743 92.4418 65.3706 92.6369 64.5842C92.7584 64.0946 92.9334 63.5794 93.3378 63.2779C93.7421 62.9764 94.4365 63.0291 94.6343 63.4931C94.7302 63.7179 94.6903 63.9747 94.6463 64.215C94.3741 65.703 94.0074 67.1738 93.5492 68.6154C93.5298 68.6766 93.5085 68.7404 93.4622 68.7848C93.3494 68.8929 93.146 68.8202 93.0679 68.685C92.9898 68.5497 93 68.383 93.0125 68.2273C93.1986 68.2137 93.2854 67.9947 93.3301 67.8134C93.5127 67.0732 93.6953 66.333 93.8779 65.5927C94.02 65.0167 94.1496 64.3608 93.819 63.8683C93.4793 64.0774 93.3517 64.5005 93.2506 64.8863C93.0473 65.6626 92.8439 66.4389 92.6405 67.2152C92.6162 67.3081 92.5822 67.4127 92.4944 67.4512L92.4944 67.4512Z" fill="#1E1C1C"/>
<defs>
<linearGradient id="paint0_linear_1_1569" x1="79.003" y1="16.2566" x2="79.003" y2="108.531" gradientUnits="userSpaceOnUse">
<stop stop-color="#F7D8FF"/>
<stop offset="1" stop-color="#3B7069"/>
</linearGradient>
</defs>
</svg>
